<svg width="442" height="330" viewBox="0 0 442 330" fill="none" xmlns="http://www.w3.org/2000/svg">
<path fill-rule="evenodd" clip-rule="evenodd" d="M242.747 0.348879C243.33 2.32685 241.542 3.73542 242.402 4.84124C241.361 5.10453 241.858 4.50229 240.673 5.53571C240.219 3.72558 240.64 1.27038 241.71 -2.08813e-07L242.118 0.523319L242.747 0.348879" fill="#696969"/>
<path fill-rule="evenodd" clip-rule="evenodd" d="M212.661 8.30017C215.31 8.77738 214.359 13.5626 213.009 14.8659C211.186 12.7991 213.059 10.5908 212.661 8.30017Z" fill="#696969"/>
<path fill-rule="evenodd" clip-rule="evenodd" d="M224.073 14.5237C225.018 14.2703 224.774 15.2115 225.459 15.2115C225.679 16.8867 225.001 17.6601 225.459 18.6704C222.928 19.1345 223.155 15.5341 224.073 14.5237" fill="#696969"/>
<path fill-rule="evenodd" clip-rule="evenodd" d="M239.636 17.6339C240.193 17.5384 240.229 17.9597 240.673 17.9762C240.93 19.0425 239.478 18.3974 239.979 19.7106C239.669 20.5202 239.212 17.6635 239.636 17.6339Z" fill="#696969"/>
<path fill-rule="evenodd" clip-rule="evenodd" d="M224.073 19.3616C225.113 19.7302 225.732 24.1173 223.724 24.8907C223.27 23.7191 222.898 20.0166 224.073 19.3616Z" fill="#696969"/>
<path fill-rule="evenodd" clip-rule="evenodd" d="M223.385 31.1142C224.363 30.8345 224.277 31.6046 225.11 31.4631C225.94 33.8129 226.084 36.5775 226.15 40.1088C226.2 42.8536 226.71 46.3981 226.496 48.4024C226.318 50.0644 224.494 51.5158 225.801 52.898C224.761 53.0034 224.567 53.9644 223.036 53.5892C223.072 47.1485 222.467 38.2296 223.385 31.1142" fill="#696969"/>
<path fill-rule="evenodd" clip-rule="evenodd" d="M97.1693 56.0081C95.3095 58.1704 94.4865 54.0466 92.3271 54.2836C92.5773 52.299 90.1809 52.9704 90.2533 51.1702C93.5451 47.9646 95.3325 54.3856 97.1693 56.0081Z" fill="#696969"/>
<path fill-rule="evenodd" clip-rule="evenodd" d="M223.385 57.3904C224.629 57.0613 223.866 58.7529 224.073 59.4704C222.829 59.7929 223.593 58.1079 223.385 57.3904Z" fill="#696969"/>
<path fill-rule="evenodd" clip-rule="evenodd" d="M31.1202 68.8007C31.4296 69.0113 31.7457 69.222 31.8148 68.8007C33.2368 69.1759 30.5803 70.2455 31.1202 68.8007Z" fill="#696969"/>
<path fill-rule="evenodd" clip-rule="evenodd" d="M164.252 73.6386C165.802 74.05 165.522 76.288 167.363 76.4065C166.665 77.2786 168.113 78.2166 167.715 79.8621C167.218 79.8325 166.734 79.8094 166.671 80.2109C165.555 78.3284 163.83 77.0614 163.561 74.3331L164.081 74.1586L164.252 73.6386" fill="#696969"/>
<path fill-rule="evenodd" clip-rule="evenodd" d="M366.54 72.9509C367.027 71.0157 369.164 70.7326 370.345 69.4952C371.313 69.4458 371.343 70.3377 371.386 71.2197C369.697 71.4962 369.852 73.6123 367.577 73.2964L367.06 73.1186L366.54 72.9509" fill="#696969"/>
<path fill-rule="evenodd" clip-rule="evenodd" d="M101.666 73.6387C101.524 74.4746 102.298 74.3924 102.015 75.3698C100.764 75.4653 99.615 75.4554 99.9376 73.9876C100.915 74.2739 100.833 73.4972 101.666 73.6387" fill="#696969"/>
<path fill-rule="evenodd" clip-rule="evenodd" d="M106.85 78.4799C108.523 78.651 109.171 79.8457 109.968 80.9022H109.273V81.59C107.364 81.2445 107.012 81.3761 106.505 79.5199L107.025 79.1118L106.85 78.4799" fill="#696969"/>
<path fill-rule="evenodd" clip-rule="evenodd" d="M109.968 81.5901V80.9022C110.932 80.8496 110.958 81.7447 111.005 82.6268C110.01 82.6959 109.115 82.6729 109.273 81.5901H109.968" fill="#696969"/>
<path fill-rule="evenodd" clip-rule="evenodd" d="M138.662 82.2844C139.82 82.5971 138.965 83.0578 138.662 83.6667C138.31 83.4429 138.306 82.8736 137.625 82.9723C137.704 82.4786 138.658 82.8538 138.662 82.2844" fill="#696969"/>
<path fill-rule="evenodd" clip-rule="evenodd" d="M90.2532 101.643C91.1123 100.586 92.3533 102.057 93.7062 101.643C93.7523 103.282 94.9538 102.443 94.7497 103.719C98.8677 104.091 100.198 107.257 104.082 107.87C103.16 108.893 105.165 109.091 105.125 110.285C99.2759 110.601 95.0888 106.263 90.6021 104.062C89.9108 103.236 91.2012 102.387 90.2532 101.643" fill="#696969"/>
<path fill-rule="evenodd" clip-rule="evenodd" d="M57.0559 135.182C54.699 135.084 53.0993 135.209 52.9116 132.411C54.9426 131.671 56.3745 132.915 57.4048 134.143L56.8847 134.544L57.0559 135.182Z" fill="#696969"/>
<path fill-rule="evenodd" clip-rule="evenodd" d="M57.5727 134.778L57.4049 134.143C59.2746 133.629 61.3385 134.63 63.6262 135.182C66.9838 135.992 70.2822 136.374 72.9617 137.253C74.7623 137.845 78.4589 138.753 78.844 141.057C76.5694 141.492 74.6734 140.02 72.616 139.678C71.0097 139.402 69.3243 139.872 67.7739 139.323C66.365 138.829 65.1141 137.391 63.6262 136.907C61.4175 136.186 59.1725 136.716 57.0559 135.182L57.5727 134.778Z" fill="#696969"/>
<path fill-rule="evenodd" clip-rule="evenodd" d="M78.4984 145.207C76.4838 145.263 74.4396 145.345 73.3105 144.516C73.6266 141.982 78.5708 143.163 78.4984 145.207Z" fill="#696969"/>
<path fill-rule="evenodd" clip-rule="evenodd" d="M99.2433 158.345C100.409 158.444 100.247 159.876 101.32 160.07C103.45 159.504 107.229 159.458 107.542 162.489C105.83 163.624 103.187 163.647 101.32 162.147C99.5823 162.992 95.9976 163.302 94.7501 161.801C94.4242 160.205 96.6231 161.133 97.1695 160.419C97.1761 159.807 97.3209 157.997 99.2433 158.345Z" fill="#696969"/>
<path fill-rule="evenodd" clip-rule="evenodd" d="M80.5723 162.147C81.2537 161.676 81.9153 161.189 81.6092 159.724C82.2544 159.682 82.7613 159.497 82.9884 159.033C85.8029 160.445 92.7616 158.424 94.0553 162.147C90.0855 162.818 85.3782 160.021 82.6494 163.18C82.1424 162.992 80.862 163.581 80.9146 162.834L81.0858 162.321L80.5723 162.147" fill="#696969"/>
<path fill-rule="evenodd" clip-rule="evenodd" d="M68.8141 162.147C67.4843 162.433 66.8161 162.41 66.0491 161.455C66.3025 160.188 68.6924 160.853 69.1598 161.455L68.643 161.627L68.8141 162.147" fill="#696969"/>
<path fill-rule="evenodd" clip-rule="evenodd" d="M346.829 167.33C347.389 165.701 348.35 164.47 349.252 163.18C352.84 162.025 355.575 163.131 359.278 163.529L359.107 164.046L359.621 163.871C359.157 165.477 358.166 166.563 357.55 168.021C354.769 167.024 349.9 168.877 347.178 168.021L347.349 167.508L346.829 167.33Z" fill="#696969"/>
<path fill-rule="evenodd" clip-rule="evenodd" d="M345.618 167.732L345.789 168.37C344.551 169.285 343.037 169.012 341.299 168.716C341.154 167.883 341.928 167.962 341.641 166.985C342.612 166.451 345.634 166.31 346.141 167.33L345.618 167.732Z" fill="#696969"/>
<path fill-rule="evenodd" clip-rule="evenodd" d="M396.627 164.911C394.573 165.849 390.458 166.283 387.288 166.293C385.692 166.303 384.098 166.073 383.137 165.606C380.399 166.428 374.72 166.846 372.074 165.606C370.02 166.126 368.354 165.8 367.923 163.871C374.082 161.452 380.596 163.818 387.288 163.529C390.001 163.41 394.698 163.088 396.627 164.911" fill="#696969"/>
<path fill-rule="evenodd" clip-rule="evenodd" d="M364.466 163.871C365.121 164.523 365.089 163.667 366.195 163.871C366.014 164.154 365.832 164.434 365.852 164.911C365.191 164.77 364.361 164.786 364.466 163.871Z" fill="#696969"/>
<path fill-rule="evenodd" clip-rule="evenodd" d="M408.724 164.911C407.829 168.071 400.653 165.75 397.66 165.606C397.66 165.257 397.66 164.911 397.66 164.566C401.219 163.871 407.361 164.115 408.724 164.911" fill="#696969"/>
<path fill-rule="evenodd" clip-rule="evenodd" d="M40.1164 167.679C40.2316 168.949 38.013 168.936 37.3447 168.37C37.7002 167.57 38.9379 167.656 40.1164 167.679Z" fill="#696969"/>
<path fill-rule="evenodd" clip-rule="evenodd" d="M50.8347 168.37C50.7886 169.667 47.092 169.288 47.3751 168.021C48.2935 168.136 50.6536 166.777 50.8347 168.37Z" fill="#696969"/>
<path fill-rule="evenodd" clip-rule="evenodd" d="M54.9855 169.061C54.3633 169.986 52.6977 169.061 52.9117 168.021C53.5997 168.021 54.2909 168.021 54.9855 168.021L54.8078 168.538L54.9855 169.061" fill="#696969"/>
<path fill-rule="evenodd" clip-rule="evenodd" d="M43.5728 168.37C43.9184 169.41 42.8026 168.982 42.187 169.061C42.4174 168.597 42.9276 168.416 43.5728 168.37Z" fill="#696969"/>
<path fill-rule="evenodd" clip-rule="evenodd" d="M398.697 178.74C398.546 179.165 398.256 179.451 397.66 179.432C397.815 179.007 398.105 178.721 398.697 178.74Z" fill="#696969"/>
<path fill-rule="evenodd" clip-rule="evenodd" d="M350.289 183.582C350.71 183.736 350.993 184.026 350.977 184.618C350.035 184.984 349.499 184.984 348.557 184.618C348.778 183.917 350.174 184.391 350.289 183.582" fill="#696969"/>
<path fill-rule="evenodd" clip-rule="evenodd" d="M372.765 186.346C373.278 186.639 373.265 187.455 373.456 188.077C370.118 188.772 367.821 187.794 365.503 186.692C367.182 184.302 370.392 187.366 372.765 186.346Z" fill="#696969"/>
<path fill-rule="evenodd" clip-rule="evenodd" d="M353.396 193.952C354.051 193.106 356.165 193.705 356.513 194.297C356.599 195.305 355.858 195.489 355.477 196.029C354.305 195.815 354.242 194.488 353.396 193.952" fill="#696969"/>
<path fill-rule="evenodd" clip-rule="evenodd" d="M348.557 199.83C349.022 199.83 349.479 199.83 349.94 199.83C349.703 200.758 350.658 200.495 350.977 200.867C350.47 201.857 350.062 201.255 348.557 201.558C348.317 200.491 348.317 200.893 348.557 199.83Z" fill="#696969"/>
<path fill-rule="evenodd" clip-rule="evenodd" d="M369.309 203.631C364.865 203.904 360.882 203.226 357.55 202.594C355.97 202.298 353.765 202.64 353.396 200.867C359.328 200.827 364.763 200.333 369.648 202.594L369.134 202.999L369.309 203.631" fill="#696969"/>
<path fill-rule="evenodd" clip-rule="evenodd" d="M371.55 203.226L371.386 202.594C373.782 203.427 379.217 200.857 378.986 204.668C375.678 204.523 373.759 204.668 371.033 203.631L371.55 203.226" fill="#696969"/>
<path fill-rule="evenodd" clip-rule="evenodd" d="M352.363 214.696C346.747 214.67 342.507 212.287 338.531 210.891C338.531 210.431 338.531 209.97 338.531 209.516C340.019 209.614 342.511 209.693 344.064 210.203C344.983 210.503 345.769 211.605 346.829 211.931C349.038 212.606 351.662 211.602 352.708 213.656L352.188 214.061L352.363 214.696" fill="#696969"/>
<path fill-rule="evenodd" clip-rule="evenodd" d="M354.611 214.982L354.433 214.35C356.158 214.245 357.416 214.6 357.893 215.736C357.577 217.214 354.404 216.154 354.094 215.39L354.611 214.982" fill="#696969"/>
<path fill-rule="evenodd" clip-rule="evenodd" d="M89.5621 217.115C89.5324 217.612 89.5061 218.095 89.9044 218.155C89.6114 218.665 89.0354 218.899 88.1762 218.846C87.9096 218.537 87.8108 218.066 87.8306 217.464C88.2355 217.174 88.7589 217.006 89.5621 217.115Z" fill="#696969"/>
<path fill-rule="evenodd" clip-rule="evenodd" d="M307.065 217.464C310.857 219.484 315.347 218.984 316.4 223.342C320.034 222.815 319.804 226.159 323.316 225.757C324.021 226.211 323.793 227.59 324.699 227.831C320.706 228.94 318.754 225.02 314.672 225.066C313.322 221.926 309.448 221.304 306.719 219.54C306.673 218.685 306.663 217.875 307.065 217.464" fill="#696969"/>
<path fill-rule="evenodd" clip-rule="evenodd" d="M71.2336 221.61C70.3941 222.746 69.581 220.649 71.2336 221.61Z" fill="#696969"/>
<path fill-rule="evenodd" clip-rule="evenodd" d="M50.4855 224.721C49.5605 226.31 46.3115 226.873 43.2271 227.488C40.3336 228.064 35.4948 231.013 35.9622 226.794C38.5265 226.935 39.7379 225.728 42.5326 226.106C44.557 225.119 47.6908 223.832 50.4855 224.721" fill="#696969"/>
<path fill-rule="evenodd" clip-rule="evenodd" d="M329.192 230.944C328.734 230.944 328.274 230.944 327.813 230.944C327.839 230.45 327.872 229.967 327.464 229.907C327.796 229.269 330.331 229.321 330.236 230.253L329.643 230.496L329.192 230.944" fill="#696969"/>
<path fill-rule="evenodd" clip-rule="evenodd" d="M330.818 231.049L331.272 230.602C333 230.483 333.178 231.918 335.074 231.632C335.426 232.089 335.413 232.909 335.766 233.366L335.245 233.534L335.423 234.057C333.264 233.567 331.216 232.958 330.235 231.293L330.818 231.049Z" fill="#696969"/>
<path fill-rule="evenodd" clip-rule="evenodd" d="M336.974 234.232L336.803 233.712C337.708 233.067 340.246 233.761 340.259 234.752C340.279 236.341 336.882 236.575 336.454 234.057L336.974 234.232" fill="#696969"/>
<path fill-rule="evenodd" clip-rule="evenodd" d="M137.279 240.969C137.872 240.844 137.934 241.242 137.971 241.66C137.678 241.597 137.645 241.798 137.625 242.012C137.223 241.953 137.335 241.377 137.279 240.969" fill="#696969"/>
<path fill-rule="evenodd" clip-rule="evenodd" d="M135.9 243.737C138.168 246.063 135.814 250.128 132.783 250.302C132.203 249.269 131.877 247.989 130.018 248.229C129.583 245.306 132.46 244.431 134.86 243.391L135.265 243.908L135.9 243.737Z" fill="#696969"/>
<path fill-rule="evenodd" clip-rule="evenodd" d="M336.803 245.813C335.496 246.044 334.943 246.235 334.729 244.777C336.032 244.54 336.585 244.349 336.803 245.813Z" fill="#696969"/>
<path fill-rule="evenodd" clip-rule="evenodd" d="M116.189 246.501C116.758 245.343 118.098 244.958 119.645 244.777C119.451 246.541 118.292 247.337 116.535 247.538L116.706 246.909L116.189 246.501Z" fill="#696969"/>
<path fill-rule="evenodd" clip-rule="evenodd" d="M338.189 246.501C338.949 246.31 338.682 247.163 339.219 247.192C339.084 248.058 337.886 247.215 338.189 246.501Z" fill="#696969"/>
<path fill-rule="evenodd" clip-rule="evenodd" d="M132.444 250.651C132.013 250.5 131.733 250.207 131.749 249.615C132.174 249.763 132.46 250.059 132.444 250.651Z" fill="#696969"/>
<path fill-rule="evenodd" clip-rule="evenodd" d="M98.2062 264.128C98.4333 265.336 99.3451 267.153 98.8942 267.939C95.8361 271.602 88.7917 274.051 82.6493 272.435C82.1127 271.24 81.5696 269.391 82.3003 267.939C83.4097 268.147 82.7744 266.695 83.6862 267.591C86.4513 264.635 90.6252 263.592 94.7498 264.128C94.9539 263.184 97.2252 263.819 98.2062 264.128" fill="#696969"/>
<path fill-rule="evenodd" clip-rule="evenodd" d="M250.009 277.615C250.354 277.615 250.703 277.615 251.042 277.615C251.138 278.52 250.921 279.106 250.009 279.001C250.009 278.54 250.009 278.083 250.009 277.615Z" fill="#696969"/>
<path fill-rule="evenodd" clip-rule="evenodd" d="M104.777 289.029C104.451 287.775 106.133 288.542 106.85 288.338C106.528 289.049 106.419 289.98 105.468 290.062L105.224 289.477L104.777 289.029" fill="#696969"/>
<path fill-rule="evenodd" clip-rule="evenodd" d="M251.391 296.628C252.744 298.988 253.643 301.973 252.774 304.928C251.049 304.237 251.711 301.157 250.354 300.09C250.871 299.11 250.74 297.481 251.391 296.628Z" fill="#696969"/>
<path fill-rule="evenodd" clip-rule="evenodd" d="M122.756 310.461C123.263 308.772 123.599 306.923 126.216 307.35C125.686 308.782 125.304 310.352 123.797 310.809L123.375 310.339L122.756 310.461" fill="#696969"/>
<path fill-rule="evenodd" clip-rule="evenodd" d="M65.7035 310.461C65.9043 311.695 64.6831 311.511 63.6265 311.501C63.9425 310.773 64.6469 310.448 65.7035 310.461Z" fill="#696969"/>
<path fill-rule="evenodd" clip-rule="evenodd" d="M59.821 313.92C60.8941 314.374 60.8052 313.827 62.247 313.92C62.2141 314.815 60.7624 314.285 61.2035 315.647C60.6242 315.647 60.0514 315.647 59.4819 315.647C59.3667 314.848 59.5313 314.318 59.821 313.92Z" fill="#696969"/>
<path fill-rule="evenodd" clip-rule="evenodd" d="M187.074 319.794C188.614 320.15 188.055 324.122 186.379 324.29C185.566 322.681 186.353 320.884 187.074 319.794Z" fill="#696969"/>
<path fill-rule="evenodd" clip-rule="evenodd" d="M201.946 325.675C202.798 326.413 202.696 327.736 201.248 327.746C201.222 327.196 201.416 326.426 200.909 326.367C200.988 325.866 201.936 326.242 201.946 325.675Z" fill="#696969"/>
<path fill-rule="evenodd" clip-rule="evenodd" d="M118.954 119.971C121.542 120.382 126.535 121.37 126.216 125.846C125.939 126.027 125.653 126.208 125.182 126.191C126.545 128.929 130.107 131.078 133.132 131.032C132.832 130.526 132.859 129.693 131.749 129.992C132.915 127.188 130.936 124.167 132.444 121.696C134.402 121.564 136.275 118.418 139.357 120.317C139.844 120.188 139.386 119.704 139.011 119.622C142.543 118.559 142.29 115.788 145.232 114.09C144.581 112.556 145.973 111.559 145.924 110.634C145.805 108.337 143.626 107.814 143.159 105.447C142.51 104.71 142.066 103.779 140.736 103.719C140.374 100.478 137.915 97.5979 137.625 95.4225C139.669 95.4554 140.433 96.7653 141.43 97.8382C143.8 98.4701 145.789 99.4772 148.346 99.9182C148.781 100.754 149.205 101.597 149.383 102.683C150.121 102.841 150.038 102.186 150.074 101.643C150.812 102.752 152.254 103.153 152.497 104.759C153.307 103.795 153.501 105.227 154.564 105.098C156.164 104.914 157.227 103.068 159.068 102.683C160.602 100.284 161.931 96.038 161.141 93.3459C162.659 93.7968 161.846 91.8188 162.178 91.2725C162.573 90.6307 164.407 91.0553 163.215 89.8935C164.719 89.7849 166.046 89.4887 167.363 89.199C167.662 89.4755 167.573 90.1468 168.061 90.2324C169.647 90.5582 169.265 88.9028 170.477 88.8535C169.795 87.2309 169.891 86.3786 170.131 84.3578C170.549 84.7462 170.757 85.3451 171.863 85.0489C171.599 81.6722 170.256 77.8052 170.826 73.9875C171.915 74.1652 172.343 75.0044 173.591 75.0209C173.482 75.8206 173.647 76.3505 173.936 76.752C176.869 78.7728 179.885 80.7178 181.54 84.0122C182.456 83.2125 184.052 83.7292 185.003 83.3211C186.274 82.7715 186.34 81.7282 187.419 81.2477C187.377 77.7427 189.589 76.367 187.074 74.3331C187.018 71.4402 186.666 70.0843 187.419 67.7608C188.229 68.4025 189.622 67.402 191.221 67.7608C192.979 69.2451 192.295 71.8845 193.99 72.2597C193.427 73.3918 194.065 73.5794 193.99 75.0209C195.395 75.9852 195.922 78.5951 198.483 78.4799C198.674 78.47 199.708 77.4629 200.909 77.4465C201.692 76.6237 201.376 75.3698 202.634 75.0209C203.203 74.8662 202.634 74.2278 202.98 73.9875C203.717 73.4708 205.488 74.2969 205.748 72.9509C208.072 72.9278 208.859 74.4483 210.932 74.6754C211.607 75.044 211.946 75.9885 213.01 76.752C215.008 77.2786 214.563 76.051 215.775 77.0976C216.835 76.2222 217.207 72.7171 216.463 69.8341C217.22 68.5045 218.53 66.701 217.848 64.9995C219.063 64.3116 219.804 64.0418 220.962 64.9995C220.91 65.4043 220.33 65.2891 219.922 65.3451C221.199 66.2172 222.809 65.9605 224.419 67.0729C223.902 68.3498 226.249 69.0015 225.11 70.1863C225.265 70.6964 225.554 70.0513 226.15 70.1863C226.381 72.3782 226.762 76.2419 226.838 77.4465C229.106 78.4569 233.267 78.8452 235.486 76.4065L236.006 76.5776L235.835 76.0609C238.843 75.8931 238.754 74.9979 241.016 75.3698C241.668 75.9852 240.799 78.1245 242.747 77.4465C242.326 79.0888 244.074 78.7761 242.747 79.5199C244.535 79.6516 246.108 81.2345 248.972 80.5566C249.88 80.912 250.41 81.6492 251.042 82.2844C252.356 80.9449 252.929 78.8616 255.2 78.4799C255.855 76.8409 257.784 74.7017 260.727 73.6386C260.233 71.0683 263.08 70.884 262.804 67.0729C264.252 66.5562 265.082 65.4306 266.952 65.3451C267.205 65.6709 267.58 65.8651 267.988 66.0362C267.63 68.6296 266.51 69.946 266.264 73.2964C265.322 73.2634 265.562 73.869 264.878 73.2964C264.756 75.1295 264.822 77.407 262.458 77.7921C262.909 80.4645 262.175 82.2844 261.076 85.3945C263.001 87.3659 265.457 87.4218 267.988 89.199C271.952 86.8327 275.487 86.8163 280.092 87.4712C280.369 89.0016 282.367 89.5907 282.166 90.5813C282.13 91.4666 281.975 92.2335 281.478 92.658C282.614 94.3431 284.065 97.2195 282.857 99.2238C282.943 99.6582 283.545 99.5726 283.549 99.2238C283.391 101.323 285.366 102.814 285.28 103.719C288.289 104.026 289.549 105.569 293.927 105.447C294.043 107.402 295.781 107.741 296.344 109.248C296.699 111.355 295.883 113.145 296.693 114.781C298.398 118.23 303.174 114.89 306.374 117.894C310.317 117.039 311.881 115.913 315.021 114.435C315.933 112.707 319.814 111.246 321.588 109.248C322.148 109.153 322.181 109.574 322.625 109.597C322.901 107.353 328.366 105.73 330.578 105.447C331.091 105.154 331.325 104.578 331.272 103.719C334.354 103.805 335.423 100.04 338.188 100.955C342.774 95.5147 352.053 94.5241 356.514 89.8935C356.915 90.1765 357.442 90.3476 358.242 90.2324C359.927 87.8924 363.657 87.5798 365.158 85.0489C368.808 84.6704 370.477 82.3042 372.765 80.5566C373.344 80.5566 373.914 80.5566 374.493 80.5566C375.579 80.7178 375.408 79.6219 376.221 79.5199C377.054 79.3784 376.972 80.1518 377.95 79.8622C378.2 80.9186 377.597 81.1226 377.604 81.9388C375.142 83.2816 371.879 83.8148 370.346 86.0857C369.243 86.4872 367.867 86.6057 367.577 87.8135C363.818 88.7844 360.951 90.6406 358.591 93.0003C358.304 92.9345 358.242 92.658 357.893 92.658C356.912 94.4352 353.818 94.1094 353.396 96.4593C352.84 96.5547 352.804 96.1301 352.363 96.1137C351.392 96.9891 350.605 98.0456 348.903 98.1838C346.635 101.333 340.878 100.994 339.219 104.759C336.974 104.786 336.269 107.511 334.383 106.83C333.741 106.882 334.172 108.001 333.689 108.212C331.411 108.584 329.577 109.406 328.853 111.325C327.089 111.065 326.671 112.145 326.085 113.05C324.133 113.593 322.398 113.932 320.9 114.781C319.801 115.403 319.136 116.65 318.128 117.2C317.799 117.384 317.052 117.048 316.746 117.2C315.176 118.013 313.869 119.635 311.907 119.622C309.336 121.287 308.688 124.045 305.682 125.846C305.314 128.86 307.009 129.818 307.065 132.411C307.608 132.767 308.536 132.599 309.83 132.411C309.83 132.757 309.83 133.106 309.83 133.448C312.032 133.435 312.565 135.097 314.326 135.521C313.49 137.526 315.021 140.09 315.021 142.785C315.014 144.934 314.396 147.669 316.746 148.66C316.868 150.963 316.436 153.81 317.092 155.578C314.623 159.504 317.651 161.709 315.363 165.606C316.683 168.403 314.165 169.933 315.709 172.517C315.9 173.287 315.051 173.011 315.021 173.557C316.012 173.596 315.196 175.449 316.4 175.281C316.051 175.742 316.074 176.572 315.363 176.667C315.775 176.657 318.823 177.042 317.783 178.398C319.165 177.473 319.712 179.168 321.246 178.398C321.061 178.675 320.884 178.954 320.9 179.432C324.106 180.093 327.981 178.171 329.887 179.777C330.262 179.692 330.12 179.089 330.578 179.086C331.997 178.938 332.793 179.405 333.689 179.777C336.19 178.803 340.473 178.793 343.024 180.817C343.534 182.552 342.728 183.025 343.719 184.273C341.615 185.201 340.081 184.24 337.839 184.273C332.908 184.348 328.188 187.281 323.316 187.383C322.451 187.403 321.776 186.744 320.9 186.692C319.633 186.619 317.727 187.909 316.4 187.041C315.821 187.84 314.745 188.14 313.978 188.765C313.612 192.385 314.422 194.841 312.595 196.029C312.658 196.43 313.227 196.318 313.635 196.374C312.259 197.092 312.802 198.513 311.212 199.484C311.604 200.481 311.285 202.18 311.907 202.94C311.812 203.651 310.982 203.628 310.521 203.98C311.528 205.231 311.318 207.478 313.635 208.13C312.282 210.358 312.095 212.142 310.521 213.656C308.204 213.251 307.582 212.52 304.988 212.965C303.138 214.459 302.661 217.322 301.183 219.188C301.712 220.166 302.019 221.35 301.874 222.993C303.25 223.809 303.622 225.629 304.645 226.794C304.142 227.679 303.431 228.347 303.26 229.562C300.857 230.092 299.685 230.302 297.035 230.944C298.562 232.797 298.177 234.413 299.458 235.782L298.938 235.96L299.112 236.476C297.911 236.2 297.782 236.993 296.693 236.822C295.07 239.386 293.068 238.043 290.119 237.862C288.312 234.466 282.577 236.829 279.747 237.513C277.511 239.899 277.054 240.311 274.559 242.012C274.342 242.957 273.914 244.8 272.482 245.464C275.207 246.939 274.997 250.088 274.216 253.074C267.037 254.37 267.475 248.048 262.804 246.85C261.57 247.962 259.693 248.41 258.65 249.615C258.597 249.677 258.765 250.796 258.65 251C258.564 251.158 257.768 251.471 257.616 251.688C257.3 252.152 256.869 253.057 255.888 253.416C254.028 254.1 252.135 253.811 250.009 254.801C245.588 259.962 250.318 268.144 250.009 274.505C246.951 274.38 247.803 270.424 246.892 267.939C246.622 267.179 245.98 267.008 245.861 266.557C244.535 261.505 244.712 257.046 241.016 254.452C240.232 253.906 238.178 253.538 236.523 254.11C235.581 254.436 234.742 255.67 233.761 256.18C233.125 256.513 232.461 256.263 232.033 256.529C231.529 256.839 231.555 257.339 231.677 257.224C231.17 257.717 230.36 257.803 229.607 258.254C228.122 259.146 227.391 260.268 225.459 261.025C224.6 261.077 224.386 260.482 223.724 260.33C222.585 260.014 221.818 261.502 220.962 261.716C220.646 261.795 220.337 261.018 220.271 261.025C219.972 261.048 219.981 261.713 219.922 261.716C218.724 261.739 215.975 261.459 216.463 262.055C213.734 263.177 210.603 262.328 207.479 262.749C206.406 262.667 206.13 261.788 205.406 261.367C203.078 262.18 202.548 259.481 200.56 258.951C200.251 258.224 200.024 257.408 199.523 256.875C197.736 257.049 198.035 255.137 196.067 255.489C196.666 253.294 192.88 253.057 192.953 250.302C191.281 248.292 189.187 246.695 188.456 243.737C184.019 239.359 180.217 245.046 176.007 246.501C176.007 247.307 176.007 248.117 176.007 248.923C175.391 248.881 175.279 249.348 174.628 249.269C175.378 253.054 171.517 255.124 170.826 258.606C167.616 261.193 165.99 264.665 163.215 268.285C160.885 268.144 161.016 270.464 159.413 271.053C158.231 270.273 156.339 270.204 155.605 268.973C158.376 264.938 160.677 260.439 163.91 256.875C163.9 256.539 163.482 256.608 163.215 256.529C163.265 255.887 164.387 256.319 164.598 255.838C166.319 251.905 168.722 252.244 169.785 247.192C170.131 247.192 170.477 247.192 170.826 247.192C170.753 245.448 172.949 244.079 172.903 241.318C173.808 241.074 173.627 239.744 174.628 239.59C174.457 237.227 172.06 237.085 171.517 235.094C165.852 235.897 162.86 229.805 158.376 231.981C157.942 232.066 158.024 232.669 158.376 232.675C156.358 233.774 153.765 234.291 150.423 234.057C149.156 236.016 146.575 236.661 144.887 238.204C144.436 237.852 143.609 237.865 143.159 237.513C143.402 236.45 143.402 236.848 143.159 235.782C144.66 235.091 146.572 234.814 146.961 233.017C149.87 232.58 151.174 230.546 152.497 228.525C155.18 228.706 157.876 225.379 155.605 221.956C154.821 220.765 152.543 220.241 149.729 220.228C150.311 218.915 147.889 218.767 146.961 217.464C145.72 215.706 146.368 213.435 144.887 211.589C144.031 210.829 142.727 210.519 142.471 209.163C138.754 208.064 135.943 210.266 132.783 208.818C132.134 207.587 132.194 205.54 131.404 203.98C129.099 203.233 128.741 204.23 126.907 205.017C124.688 205.968 122.325 205.441 121.37 207.439C117.457 207.162 114.352 208.433 111.344 209.516C111.057 209.614 111.14 210.154 111.005 210.203C105.168 212.155 98.0813 211.889 94.0554 215.39C93.8448 214.452 92.6136 214.525 92.6761 213.314C94.1541 211.908 96.4387 211.313 99.2432 211.24C100.027 210.526 100.474 209.47 100.975 208.476C103.862 207.939 106.35 207.324 108.928 206.399C109.688 206.126 112.427 204.776 113.77 204.668C115.709 204.513 118.944 206.238 120.34 203.631C122.954 203.944 123.388 202.074 126.216 202.594C128.283 200.541 131.792 200.215 135.209 201.212C135.742 200.827 135.923 200.09 136.934 200.172C137.79 196.799 137.21 192.484 135.555 191.187C134.481 187.765 130.311 187.442 129.672 183.582C126.17 181.564 124.751 177.842 125.521 173.208C125.771 171.697 127.223 169.644 127.944 167.679C128.316 166.669 128.138 164.569 129.672 164.566C130.047 162.291 130.624 160.215 131.058 157.997C130.716 156.957 129.659 156.627 129.323 155.578C128.52 155.578 127.717 155.578 126.907 155.578C126.311 153.527 122.467 154.715 121.37 153.159L121.894 152.757L121.719 152.119C124.109 151.737 124.843 149.709 126.216 148.317C128.428 147.992 130.732 147.761 130.709 145.207C131.058 145.207 131.404 145.207 131.749 145.207C131.022 143.012 132.217 139.974 133.132 138.293C133.122 137.954 132.71 138.026 132.444 137.947C133.231 137.029 133.231 135.749 132.444 134.834C129.287 132.569 126.064 130.374 122.417 128.61C122.467 127.754 122.476 126.935 121.719 126.882C122.308 126.198 123.24 125.869 123.447 124.806C122.167 123.094 119.632 122.633 118.612 120.659L119.125 120.488L118.954 119.971" fill="#696969"/>
<path fill-rule="evenodd" clip-rule="evenodd" d="M300.491 237.168L300.843 236.822C301.778 237.27 302.805 237.625 302.568 239.244C302.17 239.188 301.956 239.32 301.874 239.59C300.652 239.636 299.02 236.875 300.149 236.822L300.491 237.168" fill="#696969"/>
<path fill-rule="evenodd" clip-rule="evenodd" d="M120.853 152.296L121.031 152.81C119.682 153.303 116.752 152.339 114.109 151.773C113.69 151.684 113.147 151.151 112.729 151.085C111.597 150.901 111.209 151.296 109.273 150.74C107.354 150.18 104.734 150.743 102.015 150.394C99.8717 150.118 97.7814 148.946 95.4377 149.008C94.223 149.041 90.951 148.393 88.8673 147.968C86.8034 147.547 84.904 146.747 83.6861 145.553C83.6268 144.799 84.9073 145.395 85.4142 145.207C87.1918 141.84 92.5541 142.594 95.0986 145.207C103.647 143.92 109.556 147.267 116.189 148.66C117.236 149.805 118.467 150.759 120.679 150.74C120.679 151.085 120.679 151.427 120.679 151.773L120.853 152.296Z" fill="#696969"/>
<path fill-rule="evenodd" clip-rule="evenodd" d="M117.397 119.102L117.571 119.622C116.992 119.622 116.416 119.622 115.843 119.622C113.43 117.078 110.188 115.363 107.202 113.402C107.367 112.309 106.574 112.178 106.85 110.98C110.981 109.258 111.146 115.712 115.152 115.13C114.115 117.276 117.591 117.085 117.917 118.931L117.397 119.102" fill="#696969"/>
<path fill-rule="evenodd" clip-rule="evenodd" d="M373.111 68.4551C373.591 68.7382 372.883 70.7392 371.728 70.5318C371.238 68.883 372.696 69.1956 373.111 68.4551Z" fill="#696969"/>
<path fill-rule="evenodd" clip-rule="evenodd" d="M112.384 84.3578C114.876 83.7555 118.592 86.8689 119.645 89.8935C115.653 90.9598 114.477 86.3259 112.384 84.3578Z" fill="#696969"/>
<path fill-rule="evenodd" clip-rule="evenodd" d="M399.389 179.432C399.764 179.247 401.035 179.073 402.503 179.086C402.486 181.212 401.522 180.478 399.738 180.468C399.771 179.978 399.79 179.491 399.389 179.432" fill="#696969"/>
<path fill-rule="evenodd" clip-rule="evenodd" d="M139.357 240.278C138.807 240.311 138.037 240.11 137.971 240.627C137.02 240.182 139.607 238.211 139.357 240.278Z" fill="#696969"/>
<path fill-rule="evenodd" clip-rule="evenodd" d="M331.618 46.329C330.621 45.9637 330.805 46.8523 330.927 46.6746C330.489 47.346 329.518 47.5994 328.853 48.4024C328.175 49.212 328.162 49.8802 326.776 50.4759C325.943 50.6141 326.967 48.9026 325.736 49.4391C326.269 47.0234 329.594 43.0544 331.618 46.329" fill="#696969"/>
<path fill-rule="evenodd" clip-rule="evenodd" d="M305.682 49.7847C305.235 51.9831 302.944 52.3484 302.914 54.9747C300.85 55.4026 301.11 56.0608 300.149 57.3904C298.167 56.1267 299.563 55.6922 299.112 52.898C301.331 51.8943 302.726 50.0545 305.682 49.7847Z" fill="#696969"/>
<path fill-rule="evenodd" clip-rule="evenodd" d="M98.8943 57.736C101.07 57.9861 102.413 59.0656 102.703 61.1949C104.885 62.2448 105.735 64.6111 108.582 64.9995C108.648 66.5562 111.525 66.7141 110.656 68.1096C112.864 68.5506 113.108 70.9564 115.495 71.2197C116.318 73.5103 117.907 75.0341 119.994 76.0609C120.261 76.367 120.366 76.8409 120.34 77.4465C123.003 76.3407 122.973 81.8862 125.521 80.9022C126.199 82.7452 127.628 84.552 129.672 84.0122C130.742 87.7509 133.017 87.1421 133.132 91.2725C128.909 91.2494 128.214 86.5069 124.142 85.3945C123.747 84.6342 122.987 84.2426 122.756 83.3211C122.44 82.258 120.439 82.8736 120.679 81.2477C120.106 81.2477 119.534 81.2477 118.954 81.2477C116.222 78.5622 114.069 75.2974 111.005 72.9509C111.031 72.003 110.422 72.2531 111.005 71.5652C108.944 71.1999 109.089 68.6329 106.505 68.8007C105.211 69.7749 104.395 70.7063 103.045 69.4952C102.815 67.8792 103.825 67.5073 104.431 66.724C102.844 63.818 100.994 61.1719 98.2063 59.4704C99.0457 58.776 98.5553 58.9208 98.8943 57.736" fill="#696969"/>
<path fill-rule="evenodd" clip-rule="evenodd" d="M12.4527 239.932C10.7509 241.15 7.2748 242.252 3.45635 242.354C3.03172 242.506 2.74859 242.795 2.76505 243.391C1.94211 243.177 1.19491 242.894 0 243.049C0 242.47 0 241.89 0 241.318C3.59132 241.005 8.38076 238.872 12.1038 238.892L11.9327 239.531L12.4527 239.932" fill="#696969"/>
<path fill-rule="evenodd" clip-rule="evenodd" d="M12.6206 239.3L12.1038 238.892C12.1498 238.132 13.5718 238.747 14.1775 238.553C14.1149 239.521 13.5817 240.024 12.4527 239.932L12.6206 239.3" fill="#696969"/>
<path fill-rule="evenodd" clip-rule="evenodd" d="M137.431 281.4C137.204 280.133 138.178 280.073 138.125 278.984C141.276 277.635 142.655 274.524 143.307 270.68C143.774 270.68 144.232 270.68 144.692 270.68C147.504 266.58 151.845 264.003 154.37 259.622C157.218 258.77 158.146 256.012 160.944 255.123C161.717 253.093 157.833 250.019 162.672 250.285C162.024 250.94 162.636 251.151 162.672 252.01C162.791 252.01 162.902 252.01 163.018 252.01L162.85 252.53L163.367 252.359C164.815 255.097 159.848 256.726 159.216 259.622C158.11 259.668 158.192 260.896 157.142 261.001C157.55 264.523 154.176 264.263 154.031 267.225C152.273 268.235 150.522 269.249 149.877 271.375C148.59 271.003 148.893 272.237 147.806 272.063C145.377 275.976 141.713 278.655 138.468 281.745L138.066 281.228L137.431 281.4" fill="#696969"/>
<path fill-rule="evenodd" clip-rule="evenodd" d="M136.269 282.364L136.74 282.785C135.755 284.22 135.594 286.484 132.938 286.244C132.648 283.302 134.715 282.719 136.394 281.745L136.269 282.364" fill="#696969"/>
<path d="M275.118 2.76733C275.072 2.76733 275.039 2.76074 274.993 2.75086C274.704 2.68504 274.519 2.39543 274.589 2.10909C274.638 1.90504 274.677 1.70762 274.691 1.50356C274.71 1.21065 274.993 1.00987 275.263 1C275.556 1.01975 275.783 1.27316 275.764 1.56608C275.747 1.82937 275.691 2.08605 275.639 2.34605C275.583 2.59289 275.359 2.76733 275.118 2.76733" fill="#696969"/>
<path d="M197.081 76.3073C196.903 76.3073 196.738 76.202 196.673 76.0276C196.525 75.6557 196.396 75.2739 196.271 74.8954C195.958 73.9542 195.665 73.0589 195.027 72.3612C194.862 72.1802 194.872 71.9038 195.053 71.7392C195.237 71.578 195.511 71.5879 195.679 71.7656C196.442 72.6015 196.778 73.6283 197.104 74.619C197.226 74.981 197.344 75.3463 197.489 75.705C197.575 75.9255 197.466 76.1822 197.242 76.2744C197.189 76.2941 197.133 76.3073 197.081 76.3073" fill="#696969"/>
<path d="M398.674 76.3303C398.645 76.3303 398.612 76.327 398.579 76.3171C398.335 76.271 398.171 76.0242 398.22 75.7675C398.362 75.1027 398.918 74.9348 399.254 74.8328C399.491 74.7637 399.599 74.7242 399.639 74.642C399.738 74.405 400.014 74.3063 400.248 74.405C400.485 74.5103 400.59 74.7834 400.485 75.0171C400.271 75.4976 399.836 75.6293 399.517 75.7215C399.188 75.8235 399.155 75.8531 399.125 75.9584C399.083 76.1756 398.892 76.3303 398.674 76.3303" fill="#696969"/>
<path d="M142.967 83.788C142.836 83.788 142.714 83.7386 142.619 83.6464L141.927 82.9553C141.736 82.7612 141.736 82.4517 141.927 82.2576C142.115 82.07 142.424 82.07 142.619 82.2641L143.307 82.9553C143.501 83.1462 143.501 83.4523 143.313 83.6432C143.218 83.7386 143.089 83.788 142.967 83.788" fill="#696969"/>
<path d="M140.025 81.3426C139.955 81.3426 139.88 81.3262 139.817 81.2933C139.541 81.1715 139.284 80.9839 139.007 80.7699C138.784 80.5922 138.744 80.2664 138.925 80.0426C139.103 79.8188 139.429 79.7727 139.653 79.9537C139.83 80.092 140.057 80.2697 140.239 80.3486C140.499 80.4671 140.614 80.7732 140.499 81.0365C140.41 81.2307 140.219 81.3426 140.025 81.3426" fill="#696969"/>
<path d="M90.5727 137.032C90.5201 137.032 90.4575 137.022 90.4048 137.002L89.7168 136.768C89.4206 136.676 89.2659 136.364 89.3614 136.08C89.4667 135.794 89.7695 135.636 90.0592 135.735L90.7472 135.969C91.0369 136.061 91.1916 136.37 91.0962 136.656C91.0139 136.887 90.8064 137.032 90.5727 137.032" fill="#696969"/>
<path d="M115.821 148.011C115.761 148.011 115.702 147.988 115.663 147.948C115.468 147.761 115.228 147.672 114.975 147.576C114.675 147.461 114.369 147.339 114.102 147.079C114.01 146.987 114.01 146.842 114.102 146.75C114.188 146.658 114.333 146.658 114.425 146.75C114.626 146.948 114.876 147.04 115.143 147.142C115.419 147.25 115.719 147.362 115.975 147.609C116.071 147.698 116.074 147.843 115.989 147.932C115.943 147.984 115.88 148.011 115.821 148.011" fill="#696969"/>
<path d="M112.177 164.891C111.973 164.891 111.765 164.888 111.561 164.878H111.314C111.031 164.874 110.814 164.638 110.82 164.358C110.824 164.088 111.044 163.867 111.321 163.867C111.327 163.867 111.331 163.867 111.334 163.867L111.584 163.877C112.407 163.897 113.187 163.917 113.865 163.574C114.115 163.453 114.418 163.551 114.54 163.802C114.665 164.055 114.566 164.354 114.316 164.476C113.612 164.828 112.888 164.891 112.177 164.891" fill="#696969"/>
<path d="M103.026 163.996C103.006 163.996 102.993 163.992 102.973 163.992C102.644 163.933 102.4 163.867 102.11 163.785C101.956 163.742 101.778 163.693 101.564 163.637C101.399 163.597 101.294 163.426 101.334 163.258C101.38 163.094 101.548 162.985 101.715 163.031C101.939 163.084 102.117 163.137 102.282 163.179C102.545 163.255 102.769 163.321 103.075 163.374C103.246 163.4 103.358 163.561 103.335 163.732C103.309 163.887 103.177 163.996 103.026 163.996" fill="#696969"/>
<path d="M392.107 165.977C392.042 165.977 391.966 165.941 391.926 165.878C391.857 165.779 391.884 165.641 391.979 165.575C392.292 165.358 392.601 165.299 392.884 165.24C392.953 165.227 393.022 165.213 393.092 165.194C393.207 165.164 393.329 165.243 393.355 165.358C393.388 165.477 393.312 165.595 393.194 165.625C393.121 165.638 393.039 165.658 392.966 165.671C392.713 165.72 392.466 165.77 392.232 165.937C392.193 165.964 392.15 165.977 392.107 165.977" fill="#696969"/>
<path d="M379.082 170.025C378.881 170.025 378.667 169.999 378.463 169.933C378.193 169.844 378.045 169.554 378.131 169.288C378.22 169.015 378.503 168.867 378.779 168.952C379.237 169.1 379.908 168.834 380.162 168.732C380.422 168.63 380.721 168.758 380.827 169.025C380.929 169.288 380.804 169.584 380.54 169.689C380.116 169.857 379.602 170.025 379.082 170.025" fill="#696969"/>
<path d="M88.647 170.812C88.3113 170.812 87.9854 170.762 87.6694 170.65C87.4455 170.571 87.3336 170.331 87.4159 170.111C87.4883 169.887 87.7287 169.772 87.9558 169.847C88.4035 170.012 88.8808 170.005 89.414 169.844C89.6346 169.775 89.8782 169.903 89.9408 170.124C90.0132 170.351 89.8914 170.585 89.6609 170.654C89.3186 170.762 88.9762 170.812 88.647 170.812" fill="#696969"/>
<path d="M395.017 177.861C394.388 177.861 394.003 177.483 393.681 177.17C393.273 176.775 393.052 176.594 392.571 176.785C392.404 176.851 392.206 176.769 392.143 176.591C392.071 176.42 392.16 176.229 392.334 176.163C393.236 175.808 393.763 176.321 394.142 176.69C394.5 177.035 394.741 177.239 395.165 177.18C395.35 177.147 395.521 177.275 395.547 177.46C395.577 177.641 395.452 177.809 395.271 177.835C395.178 177.855 395.093 177.861 395.017 177.861" fill="#696969"/>
<path d="M423.228 181.633C422.971 181.633 422.731 181.485 422.615 181.235C422.471 180.899 422.619 180.504 422.955 180.356C423.534 180.106 424.113 180.112 424.63 180.122C425.055 180.132 425.423 180.135 425.729 180.004C426.072 179.862 426.464 180.017 426.608 180.359C426.75 180.701 426.595 181.09 426.256 181.235C425.68 181.475 425.107 181.468 424.604 181.462C424.169 181.452 423.804 181.442 423.494 181.577C423.409 181.62 423.32 181.633 423.228 181.633" fill="#696969"/>
<path d="M408.701 190.621C408.649 190.621 408.589 190.611 408.53 190.588L407.836 190.358C407.556 190.265 407.398 189.956 407.493 189.666C407.592 189.38 407.901 189.229 408.184 189.324L408.879 189.551C409.162 189.647 409.317 189.959 409.221 190.246C409.146 190.473 408.932 190.621 408.701 190.621" fill="#696969"/>
<path d="M379.309 202.768C379.25 202.768 379.178 202.752 379.122 202.722C378.618 202.419 378.071 202.199 377.502 202.067C377.305 202.025 377.176 201.827 377.222 201.626C377.268 201.429 377.466 201.304 377.667 201.35C378.312 201.501 378.931 201.745 379.5 202.08C379.675 202.189 379.731 202.416 379.632 202.591C379.563 202.706 379.438 202.768 379.309 202.768Z" fill="#696969"/>
<path d="M404.55 205.47C404.501 205.47 404.442 205.46 404.386 205.447C404.06 205.335 403.695 205.339 403.296 205.339C402.878 205.339 402.44 205.349 401.989 205.217C401.703 205.141 401.535 204.842 401.621 204.555C401.7 204.276 401.996 204.111 402.282 204.193C402.589 204.276 402.921 204.272 403.29 204.272C403.727 204.262 404.228 204.262 404.728 204.43C405.008 204.522 405.156 204.829 405.061 205.108C404.985 205.335 404.777 205.47 404.55 205.47" fill="#696969"/>
<path d="M387.611 217.223C387.552 217.223 387.492 217.216 387.43 217.193C387.117 217.085 386.817 216.94 386.511 216.795C386.037 216.571 385.593 216.361 385.122 216.301C384.826 216.259 384.628 215.992 384.661 215.699C384.701 215.41 384.971 215.209 385.26 215.242C385.896 215.327 386.439 215.587 386.972 215.834C387.239 215.962 387.512 216.087 387.785 216.19C388.068 216.288 388.213 216.591 388.114 216.867C388.035 217.088 387.828 217.223 387.611 217.223" fill="#696969"/>
<path d="M369.974 236.292C369.865 236.292 369.757 236.239 369.694 236.143C369.487 235.857 369.197 235.795 368.74 235.716C368.539 235.679 368.328 235.643 368.137 235.581C367.946 235.518 367.851 235.324 367.91 235.133C367.969 234.952 368.17 234.847 368.354 234.913C368.519 234.965 368.693 234.992 368.861 235.025C369.335 235.1 369.882 235.199 370.26 235.729C370.379 235.893 370.342 236.111 370.178 236.226C370.115 236.269 370.046 236.292 369.974 236.292Z" fill="#696969"/>
<path d="M363.818 233.326C363.706 233.326 363.588 233.297 363.489 233.224C363.404 233.168 363.236 233.106 363.081 233.053C362.804 232.958 362.488 232.846 362.251 232.622C362.021 232.398 362.011 232.043 362.228 231.809C362.449 231.575 362.814 231.566 363.041 231.789C363.104 231.842 363.315 231.918 363.459 231.97C363.683 232.049 363.94 232.138 364.154 232.29C364.411 232.477 364.47 232.829 364.286 233.086C364.177 233.247 363.999 233.326 363.818 233.326" fill="#696969"/>
<path d="M168.265 246.119C168.196 246.119 168.123 246.102 168.054 246.073C167.804 245.958 167.692 245.661 167.804 245.411C167.939 245.118 168.153 244.839 168.331 244.615C168.498 244.401 168.814 244.361 169.032 244.529C169.249 244.7 169.292 245.013 169.117 245.234C168.979 245.411 168.801 245.638 168.719 245.823C168.633 246.01 168.459 246.119 168.265 246.119Z" fill="#696969"/>
<path d="M147.457 251.381C147.395 251.381 147.336 251.368 147.27 251.345C146.97 251.243 146.812 250.921 146.914 250.618C147.332 249.403 148.471 248.643 149.423 248.107C149.706 247.955 150.058 248.057 150.209 248.334C150.367 248.61 150.262 248.959 149.985 249.114C149.215 249.545 148.297 250.15 148.007 250.99C147.922 251.23 147.698 251.381 147.457 251.381" fill="#696969"/>
<path d="M137.671 292.616C137.559 292.616 137.451 292.579 137.349 292.517C137.072 292.339 136.987 291.967 137.168 291.691L137.306 291.477C137.454 291.23 137.612 290.987 137.767 290.802C137.974 290.549 138.356 290.513 138.606 290.72C138.866 290.934 138.899 291.312 138.689 291.566C138.567 291.714 138.445 291.915 138.317 292.119L138.178 292.336C138.06 292.517 137.869 292.616 137.671 292.616Z" fill="#696969"/>
<path d="M160.598 306.547C160.529 306.547 160.46 306.537 160.391 306.501C160.184 306.389 160.111 306.126 160.223 305.918L160.477 305.431C161.026 304.385 161.589 303.305 162.577 302.499C162.758 302.351 163.028 302.377 163.179 302.565C163.331 302.746 163.301 303.016 163.12 303.167C162.274 303.861 161.767 304.819 161.244 305.829L160.977 306.323C160.901 306.471 160.753 306.547 160.598 306.547" fill="#696969"/>
<path d="M155.927 313.606C155.838 313.606 155.746 313.583 155.66 313.541C155.381 313.389 155.275 313.04 155.423 312.761C155.529 312.566 155.687 312.221 155.842 311.836C155.96 311.54 156.289 311.398 156.585 311.513C156.882 311.625 157.023 311.964 156.911 312.257C156.734 312.698 156.556 313.083 156.434 313.304C156.332 313.498 156.135 313.606 155.927 313.606" fill="#696969"/>
<path d="M152.823 317.566C152.724 317.566 152.632 317.533 152.56 317.467C152.402 317.322 152.389 317.078 152.537 316.921C152.692 316.749 152.81 316.585 152.909 316.44C153.027 316.269 153.136 316.127 153.264 316.015C153.429 315.881 153.679 315.907 153.808 316.075C153.946 316.239 153.923 316.48 153.755 316.618C153.702 316.657 153.62 316.779 153.534 316.894C153.419 317.055 153.284 317.246 153.106 317.444C153.027 317.526 152.925 317.566 152.823 317.566" fill="#696969"/>
<path d="M269.005 78.5123C268.936 78.5123 268.874 78.4827 268.834 78.4268C268.627 78.1766 268.531 77.9232 268.449 77.6632C268.406 77.548 268.472 77.4196 268.594 77.3834C268.703 77.3472 268.834 77.4065 268.874 77.5283C268.946 77.7586 269.019 77.9495 269.173 78.1437C269.256 78.2391 269.242 78.3806 269.147 78.4596C269.104 78.4958 269.055 78.5123 269.005 78.5123" fill="#696969"/>
<path d="M333.491 239.148C333.346 239.148 333.228 239.033 333.221 238.888C333.205 238.5 332.866 238.342 332.316 238.125C332.132 238.056 331.957 237.987 331.809 237.908C331.674 237.835 331.625 237.667 331.697 237.536C331.77 237.401 331.938 237.351 332.073 237.424C332.204 237.496 332.352 237.559 332.517 237.615C333.031 237.815 333.735 238.089 333.765 238.862C333.774 239.017 333.656 239.142 333.505 239.148C333.498 239.148 333.498 239.148 333.491 239.148" fill="#696969"/>
<path d="M154.894 154.988C154.828 154.988 154.765 154.975 154.696 154.948C154.538 154.886 154.377 154.807 154.216 154.731C154.041 154.646 153.863 154.56 153.689 154.498C153.412 154.405 153.264 154.106 153.36 153.829C153.452 153.553 153.752 153.408 154.028 153.5C154.239 153.576 154.456 153.678 154.673 153.78C154.811 153.849 154.95 153.922 155.085 153.971C155.358 154.08 155.49 154.386 155.381 154.655C155.302 154.863 155.101 154.988 154.894 154.988" fill="#696969"/>
<path d="M152.129 122.554C152.102 122.554 152.079 122.554 152.053 122.547C151.5 122.439 151.2 122.06 150.934 121.725C150.726 121.461 150.552 121.244 150.282 121.155C150.098 121.089 149.989 120.889 150.058 120.701C150.117 120.507 150.325 120.408 150.512 120.467C150.98 120.619 151.256 120.968 151.5 121.277C151.75 121.59 151.918 121.784 152.194 121.837C152.392 121.879 152.52 122.067 152.484 122.264C152.448 122.439 152.296 122.554 152.129 122.554" fill="#696969"/>
<path d="M44.9327 241.784C44.7055 241.784 44.4948 241.64 44.4126 241.413C44.3171 241.126 44.4685 240.817 44.7582 240.718L45.4527 240.488C45.7391 240.396 46.0453 240.55 46.1407 240.84C46.2395 241.126 46.0815 241.429 45.7984 241.528L45.1038 241.755C45.0478 241.778 44.9886 241.784 44.9327 241.784" fill="#696969"/>
<path d="M162.85 252.757C162.78 252.757 162.721 252.724 162.672 252.671C162.593 252.579 162.609 252.441 162.705 252.362C162.975 252.138 163.248 252.046 163.468 251.974C163.577 251.941 163.709 251.997 163.748 252.115C163.784 252.234 163.722 252.362 163.603 252.395C163.373 252.477 163.179 252.543 162.988 252.708C162.948 252.737 162.896 252.757 162.85 252.757Z" fill="#696969"/>
<path d="M136.269 282.831C136.052 282.831 135.851 282.686 135.805 282.466C135.752 282.206 135.91 281.956 136.17 281.9L136.588 281.808C136.835 281.748 137.072 281.699 137.286 281.653C137.388 281.528 137.487 281.314 137.576 281.146L137.642 281.011C137.767 280.778 138.053 280.689 138.284 280.804C138.514 280.926 138.606 281.212 138.488 281.442L138.422 281.571C138.27 281.874 138.093 282.219 137.856 282.436L137.757 282.535L137.615 282.555C137.372 282.601 137.089 282.663 136.802 282.732L136.371 282.821C136.335 282.831 136.305 282.831 136.269 282.831" fill="#696969"/>
</svg>
