<svg width="366" height="311" viewBox="0 0 366 311" fill="none" xmlns="http://www.w3.org/2000/svg">
<path fill-rule="evenodd" clip-rule="evenodd" d="M365.821 116.397C365.324 114.149 360.702 113.721 358.483 114.044C355.712 114.458 354.51 116.66 351.818 116.397C350.916 118.062 348.717 118.592 346.827 118.391C345.438 120.428 343.473 119.329 340.481 119.059C339.21 119.678 338.69 120.307 337.146 119.382C336.511 120.409 334.96 120.534 333.815 121.064L334.315 121.225L334.151 121.709C334.612 122.485 333.868 122.387 334.812 122.709C339.865 124.49 344.938 120.55 350.481 120.382C350.929 120.06 351.136 119.487 351.818 119.382C356.182 121.57 366.947 121.324 365.821 116.397" fill="#696969"/>
<path fill-rule="evenodd" clip-rule="evenodd" d="M208.086 9.69558C208.672 9.3928 208.83 8.65886 208.761 7.69786L208.149 7.86241L207.764 7.35557C207.283 7.43785 206.987 10.107 208.086 9.69558Z" fill="#696969"/>
<path fill-rule="evenodd" clip-rule="evenodd" d="M293.132 18.687C301.49 20.0166 303.61 13.8358 303.468 7.6979C301.316 6.6612 301.161 4.49896 299.13 3.68605C296.868 2.78428 291.941 3.25821 289.794 4.67997C287.056 6.54274 285.923 11.8414 287.461 14.6915C288.567 16.7518 291.575 16.4918 293.132 18.687Z" fill="#696969"/>
<path fill-rule="evenodd" clip-rule="evenodd" d="M208.087 33.0394C208.297 33.0625 208.485 33.0789 208.426 33.3685C208.646 33.3685 208.87 33.3685 209.094 33.3685C209.611 32.5523 207.965 32.3911 208.087 33.0394" fill="#696969"/>
<path fill-rule="evenodd" clip-rule="evenodd" d="M144.727 41.3792C144.786 40.5432 144.789 39.7467 144.071 39.7039C144.015 40.5234 144.009 41.3166 144.727 41.3792Z" fill="#696969"/>
<path fill-rule="evenodd" clip-rule="evenodd" d="M144.727 42.021C144.348 42.6364 142.966 42.2777 143.403 43.7028C144.483 44.9633 146.419 42.5377 144.727 42.021Z" fill="#696969"/>
<path fill-rule="evenodd" clip-rule="evenodd" d="M326.468 78.0554C331.257 78.2924 333.874 75.0045 335.817 72.0359C335.501 70.6899 334.832 69.6927 335.152 67.7147C333.469 66.5299 331.494 64.3676 329.477 64.0418C324.338 63.1861 317.281 69.1595 319.805 73.7046C321.138 76.0873 323.617 77.8909 326.468 78.0554Z" fill="#696969"/>
<path fill-rule="evenodd" clip-rule="evenodd" d="M56.6919 68.0405C55.5036 67.9549 54.9439 68.5275 55.0328 69.7123C55.9644 69.5444 56.3068 68.7513 56.6919 68.0405Z" fill="#696969"/>
<path fill-rule="evenodd" clip-rule="evenodd" d="M253.779 70.0383C253.921 69.4031 254.73 69.4492 254.441 68.3697C254.003 68.3697 253.552 68.3697 253.111 68.3697C253.068 69.1991 253.048 69.9923 253.779 70.0383" fill="#696969"/>
<path fill-rule="evenodd" clip-rule="evenodd" d="M142.399 77.7098C142.386 78.7202 142.705 79.4146 143.403 79.7207L143.571 79.2139L144.071 79.3751C144.335 78.006 143.565 77.6571 142.399 77.7098Z" fill="#696969"/>
<path fill-rule="evenodd" clip-rule="evenodd" d="M148.739 87.7116C148.828 86.9546 148.657 86.4642 148.068 86.3885C148.147 86.9776 147.722 88.0571 148.739 87.7116Z" fill="#696969"/>
<path fill-rule="evenodd" clip-rule="evenodd" d="M111.052 92.7074C112.254 92.4375 112.672 93.461 113.389 92.7074L113.221 92.2137L113.389 91.7036C113.254 90.9697 110.95 90.6076 110.387 91.7036C110.986 91.6674 111.174 92.0492 111.052 92.7074Z" fill="#696969"/>
<path fill-rule="evenodd" clip-rule="evenodd" d="M125.394 101.393C125.43 100.981 125.499 100.593 126.049 100.718C126.072 100.142 125.799 99.8591 125.394 99.7209C125.002 100.231 124.222 101.123 125.394 101.393" fill="#696969"/>
<path fill-rule="evenodd" clip-rule="evenodd" d="M265.781 100.047C265.504 100.432 265.336 100.945 265.448 101.715C267.196 102.248 267.858 99.6978 265.781 100.047Z" fill="#696969"/>
<path fill-rule="evenodd" clip-rule="evenodd" d="M86.7061 109.38C84.7639 108.524 82.249 109.179 82.7098 111.72C84.5302 113.069 86.4592 111.48 86.7061 109.38Z" fill="#696969"/>
<path fill-rule="evenodd" clip-rule="evenodd" d="M333.321 121.896L333.482 121.386C332.669 120.448 332.08 122.041 331.481 122.061C331.708 122.041 330.941 121.452 330.48 121.386C327.778 121.08 323.466 121.709 323.479 123.061C323.472 122.749 324.944 124.611 324.473 124.384C326.557 125.319 330.908 123.443 333.14 123.726C333.288 123.074 334.098 123.12 333.815 122.061L333.321 121.896Z" fill="#696969"/>
<path fill-rule="evenodd" clip-rule="evenodd" d="M91.0513 117.045C90.788 116.347 89.0434 117.308 90.0473 117.717C90.0473 117.167 90.9625 117.536 91.0513 117.045Z" fill="#696969"/>
<path fill-rule="evenodd" clip-rule="evenodd" d="M315.138 123.061C315.049 123.815 315.23 124.305 315.799 124.384C316.336 123.897 316.181 122.897 315.138 123.061Z" fill="#696969"/>
<path fill-rule="evenodd" clip-rule="evenodd" d="M116.395 139.063C115.272 138.046 115.371 140.284 116.395 139.063Z" fill="#696969"/>
<path fill-rule="evenodd" clip-rule="evenodd" d="M280.801 148.396C281.39 147.827 280.686 147.093 279.784 147.047C279.695 147.926 279.906 148.502 280.801 148.396Z" fill="#696969"/>
<path fill-rule="evenodd" clip-rule="evenodd" d="M322.146 209.41C321.856 210.246 321.701 211.204 321.807 212.405C323.048 212.28 322.679 213.751 324.14 213.402C325.523 212.708 325.829 210.444 324.802 209.081C323.548 208.821 323.212 209.493 322.146 209.41Z" fill="#696969"/>
<path fill-rule="evenodd" clip-rule="evenodd" d="M201.76 263.756L201.375 264.244L200.756 264.076C200.41 268.13 200.404 270.582 201.76 273.09L202.145 272.577L202.764 272.758C202.8 268.608 202.77 265.389 201.76 263.756Z" fill="#696969"/>
<path fill-rule="evenodd" clip-rule="evenodd" d="M203.034 279.593L202.421 279.425C201.786 281.064 202.076 284.359 203.419 285.093C205.463 284.527 204.126 280.084 203.419 279.086L203.034 279.593" fill="#696969"/>
<path fill-rule="evenodd" clip-rule="evenodd" d="M256.775 273.761C256.715 274.15 256.409 273.969 256.106 273.761C256.041 274.008 256.1 274.41 255.777 274.41C255.758 274.212 255.725 274.028 255.445 274.091C255.688 274.436 255.744 276.635 256.106 275.759C255.744 274.703 258.078 274.657 256.775 273.761Z" fill="#696969"/>
<path fill-rule="evenodd" clip-rule="evenodd" d="M99.7119 163.397C100.123 162.489 103.883 161.702 104.38 163.052C101.96 163.029 101.684 163.361 99.7119 163.397ZM311.803 125.385C311.197 124.421 311.737 123.874 310.806 123.726C308.445 123.726 307.172 124.855 305.443 124.753C305.687 124.812 305.829 124.931 305.463 125.056C299.071 124.2 290.308 125.971 284.452 122.709C283.636 119.247 280.716 118.171 278.125 116.719C277.342 116.291 276.808 115.353 276.127 115.047C275.656 114.847 274.942 115.209 274.455 115.047C274.037 114.922 273.806 114.172 273.457 114.044C272.634 113.8 271.42 113.603 270.442 113.372C268.148 112.882 264.952 112.276 262.443 111.72C257.887 110.703 254.8 110.381 254.78 106.059C254.596 104.875 255.952 105.223 255.777 104.062C255.251 101.57 256.261 99.5957 257.456 97.7197C257.828 97.1109 258.355 96.3737 258.786 95.7253C260.722 92.6679 262.598 91.1803 264.777 89.0345C265.646 88.2183 266.245 86.9775 267.124 86.0396C268.378 84.6902 270.097 83.7161 271.124 82.37C272.486 80.5961 272.681 78.1738 275.116 77.3773C275.304 75.2184 276.687 74.2771 277.793 73.0364C277.793 71.7134 278.448 71.0386 278.461 69.7123C283.359 64.6144 287.513 58.7661 293.132 54.3824C293.119 53.5892 293.705 53.3851 293.471 52.3616C294.373 52.3418 294.126 52.931 294.798 52.3616C295.002 51.2426 295.986 50.8938 296.128 49.7156C298.745 47.6949 301.78 46.6153 304.466 45.0422C305.559 44.3905 306.273 42.8832 307.797 43.0247C307.251 41.988 308.446 42.2316 308.794 41.7017C309.97 39.8883 309.917 37.2126 311.128 35.363C310.644 34.2045 310.286 32.8782 309.133 32.3681C307.333 32.1311 306.434 32.7729 304.801 32.6906C303.932 33.9379 302.751 34.8727 301.47 35.7053C301.47 36.4886 300.884 36.6893 301.128 37.7062C297.586 41.5996 293.619 45.0916 290.456 49.37C289.883 49.3536 289.429 49.449 289.126 49.7156C288.155 50.4627 287.872 51.8976 286.786 52.7105C286.44 52.9803 285.759 52.75 285.456 53.0396C285.058 53.4246 285.216 54.2014 284.788 54.7115C284.439 55.113 283.487 55.3006 283.129 55.712C282.325 56.5414 281.687 57.5813 280.801 58.3778C279.333 59.6481 277.45 60.4216 276.453 61.6985C275.953 62.3732 276.242 63.2486 275.785 64.0417C274.975 65.4471 273.148 67.0038 271.779 68.3696C268.329 71.8746 264.244 75.0341 263.115 80.3756C262.986 81.1655 264.639 80.1913 264.115 81.3662C262.71 81.7184 262.894 83.1631 262.124 84.0419C260.465 85.9013 257.782 86.5069 255.777 88.034C253.727 88.1986 252.334 87.7115 250.777 87.3857C248.852 83.1862 244.483 81.5735 242.775 77.7098C242.275 76.5644 241.682 74.524 241.445 73.0364C241.142 71.1605 242.034 70.1567 242.107 69.041C242.413 64.1833 239.961 58.8912 239.434 54.3824C240.214 53.5892 240.411 52.2431 242.107 52.3616C241.251 50.1631 243.367 48.6756 244.105 47.0465C244.085 40.0956 252.321 38.7101 249.777 31.3676C244.678 28.9191 241.432 34.6258 242.107 41.0336C240 44.3741 239.365 49.1857 234.766 50.0414C230.299 45.1837 221.375 46.8161 216.102 49.0409C212.264 55.0966 208.56 61.2904 204.755 67.3625C200.673 69.7716 195.337 73.0561 189.425 70.7095C187.559 68.182 186.022 67.6752 185.084 65.7137C183.691 62.7813 183.813 57.5188 184.415 53.7143C185.284 48.2049 188.761 43.2124 189.425 38.0321C190.156 32.2266 187.668 24.7426 182.421 28.0238C178.974 30.1861 180.103 39.9904 179.754 43.7027C179.438 46.9017 176.867 53.0956 176.416 55.3829C175.531 59.8884 176.173 64.6342 174.076 66.7142C171.209 68.0602 169.464 70.5417 167.417 72.7073C167.259 76.0083 165.577 77.7855 164.072 79.7207C164.072 80.2736 164.072 80.8199 164.072 81.3662C163.273 81.9389 162.937 83.0019 162.41 83.716C160.679 86.0396 158.648 87.7707 156.745 89.7091C155.306 90.5023 153.509 90.9335 152.071 91.7036C152.09 91.1342 151.827 90.8479 151.399 90.7031C150.826 91.5653 151.794 91.8912 151.073 92.375C150.26 91.2395 150.468 94.0929 149.737 92.375C149.855 93.8691 148.904 95.0473 147.403 96.0478C146.531 96.6205 144.858 96.8213 143.068 97.7197C139.052 99.6977 135.24 104.341 130.724 103.39C128.357 104.796 125.216 105.632 121.724 105.714C121.227 105.73 120.555 105.326 120.055 105.381C118.38 105.609 117.053 106.504 115.391 106.389C112.596 106.178 109.439 104.183 108.057 102.716C102.309 101.551 99.7449 98.7795 94.7085 97.3709C93.3852 95.4982 90.9295 94.7281 88.0427 94.376C87.6246 93.359 86.4034 93.1122 86.0413 92.0492C83.0984 91.3152 80.8963 89.8474 79.3755 87.7115C76.9198 87.9353 77.1568 85.4933 74.7078 85.7105C71.0803 82.1067 66.0439 79.9214 62.3538 76.3768C61.4222 76.3176 60.9778 75.7615 60.0364 75.7055C59.5854 73.5827 57.8638 74.7906 57.3668 72.7073C56.5702 73.1549 54.8782 71.6475 54.3581 70.7095C54.5589 70.7095 54.7301 70.4495 54.3581 70.3804C52.5147 70.5647 51.0795 67.4481 48.0314 67.7147C43.3077 63.5514 36.6156 61.0666 33.0276 56.7059C31.9709 56.3406 32.2671 56.6862 31.0261 56.7059C31.0426 56.1333 30.9439 55.6659 30.6904 55.3829C28.6034 54.8695 26.5987 53.6846 25.3512 52.7105C25.0154 52.4472 24.6435 51.937 24.3472 51.71C20.4794 48.6163 15.8874 46.7964 13.6819 42.7022C10.6732 40.5564 6.89759 38.2987 1.33781 39.704C0.804548 40.9513 -0.0381609 41.3792 0.00134018 42.7022C0.030966 43.4526 2.2167 47.0465 3.67166 48.3728C4.59664 49.2055 5.40642 48.8961 6.68692 49.37C7.68761 49.7353 8.38874 50.614 9.01417 50.7127C10.2058 50.8773 11.5719 50.1632 12.6713 50.3672C15.7656 50.9399 17.5793 54.4021 20.0152 54.0335C19.347 54.8135 20.0975 54.4021 20.3477 55.0373C22.7671 55.9522 25.3248 56.7289 26.3585 59.0524C31.5035 61.2707 34.6866 65.5294 39.6868 67.04C41.2767 69.1233 43.706 70.0382 46.6949 71.3842C48.4066 73.1384 50.8491 75.8437 53.3542 75.7055C53.104 78.029 57.0705 78.8683 58.0251 81.0437C58.8152 81.0437 59.0192 81.6163 60.0364 81.3662C61.386 83.0381 62.9792 84.4269 65.3724 85.0424C65.5205 86.4082 66.6462 86.2436 67.3671 86.7143C67.7062 86.9381 67.7325 87.5667 68.0288 87.7115C68.6707 88.034 69.2106 87.672 69.701 88.034C70.6194 88.712 70.9519 90.0547 72.0382 90.0547C71.7485 90.0975 75.9389 91.1968 75.7052 93.3788C79.1418 93.3985 79.6948 96.2716 82.3743 97.0483C82.2624 97.881 83.1215 99.7339 84.0432 100.718C84.4547 101.146 85.271 101.067 85.7022 101.393C86.3869 101.857 85.3335 102.818 86.7062 102.044C86.6535 102.877 87.2362 103.078 87.3777 103.716C88.0098 104.341 88.2138 103.759 89.0433 103.716C91.3969 106.895 95.6532 109.745 100.387 111.371C100.966 111.588 101.786 111.197 102.391 111.371C102.777 111.503 103.929 112.319 104.719 112.721C105.617 113.172 106.848 113.642 107.382 114.044C108.099 114.6 108.405 115.966 109.051 116.397C109.725 116.821 109.772 115.798 110.387 116.397C110.545 116.538 110.015 116.946 110.051 117.045C110.229 117.654 112.125 117.96 112.049 118.717C112.793 120.975 113.452 123.325 115.058 124.727C114.048 125.178 115.746 126.438 114.719 127.053C117.557 128.946 117.876 131.582 118.06 135.716C117.422 135.88 116.632 134.699 116.717 136.068C118.047 136.104 116.697 136.246 116.717 136.71C116.793 137.917 117.925 140.02 116.395 141.054C116.085 141.264 115.973 140.33 115.713 140.382C115.634 141.367 116.348 141.544 116.717 142.054C116.003 142.344 115.874 142.89 115.058 143.726C116.612 144.2 115.331 144.605 116.717 144.727C116.289 146.033 117.692 145.543 117.731 146.399C117.004 147.764 118.6 148.837 119.061 150.72C117.27 149.825 119.094 152.856 117.053 153.063C118.617 152.981 117.524 153.451 118.06 154.393C117.244 153.692 117.306 155.104 117.053 155.39C115.898 156.713 112.958 157.608 110.726 158.056C106.5 158.915 101.621 158.329 99.0536 160.406C93.3885 160.178 88.2928 161.808 83.7074 162.726C83.0227 163.052 83.4178 164.437 82.3743 164.391C80.0075 164.477 78.7533 163.828 76.6993 164.391C71.551 160.04 65.8661 167.373 59.3715 164.724C57.008 166.093 53.2455 167.129 49.3711 167.718C46.3296 168.189 41.7046 169.311 41.3458 172.066C40.9739 175.1 43.7389 176.121 46.3592 175.729C46.6818 175.69 47.9096 174.837 48.6897 174.406C51.31 172.938 54.7762 171.816 57.3668 173.06C58.1008 171.859 59.4241 172.51 60.7013 172.066C61.1424 171.898 61.0009 171.326 61.702 171.066C64.2071 170.121 69.9183 169.739 72.0382 169.071C73.9243 168.452 75.004 169.206 76.0442 169.397C79.0726 169.943 81.6237 168.419 84.3724 168.064C85.1262 167.965 85.9228 168.452 86.7062 168.393C86.7852 168.393 87.2625 167.82 87.7201 167.718C88.994 167.475 90.8966 168.15 92.7104 168.064C94.9027 167.965 97.6579 167.09 100.387 167.396C103.767 167.781 106.687 167.636 109.725 166.395C110.499 166.497 110.973 166.929 112.049 166.721C113.603 165.438 116.862 165.438 119.061 165.721C119.877 168.354 120.206 170.052 120.723 172.066C120.361 171.51 119.992 172.165 119.726 172.389C118.554 173.448 118.89 173.695 118.728 174.406C118.682 174.551 117.85 174.919 117.731 175.061C117.682 175.1 115.759 176.094 114.054 177.059C113.863 178.892 113.577 179.843 112.724 181.396C110.864 184.747 108.544 186.534 106.055 188.41C103.991 189.943 101.746 191.651 100.051 192.734C98.4347 193.791 96.4498 195.058 95.0442 195.732C94.7085 195.887 94.1028 195.571 93.7111 195.732C91.1303 196.848 88.1908 198.704 85.3797 199.076C83.2203 201.577 80.0964 203.131 75.3694 203.065C73.1113 205.474 66.4718 206.066 67.3671 210.082C68.2197 213.916 73.9605 211.507 77.7033 211.076C79.2734 209.532 80.4354 207.59 82.0352 206.066C85.2249 205.086 87.0124 201.13 91.0513 202.071C92.131 199.929 95.7651 200.11 97.3814 199.399C97.4011 199.929 97.3386 200.557 98.0595 200.399C99.1523 198.625 101.15 198.253 102.717 197.075C103.942 196.137 104.827 194.65 106.055 193.731C109.604 191.079 112.589 190.388 117.392 189.407C120.233 188.818 122.639 188.025 126.049 188.742C126.987 189.818 128.571 191.22 129.4 191.405C130.414 192.267 130.648 193.939 132.063 194.406C132.781 196.874 135.609 199.03 135.734 203.065C137.179 203.963 138.36 205.106 138.729 207.09C139.687 207.409 140.312 208.324 141.063 209.081C141.415 209.423 142.926 211.329 143.068 211.405C144.45 212.201 146.728 211.852 148.739 212.405C149.898 212.728 150.751 213.527 151.732 213.751C153.246 214.077 154.961 213.787 156.403 214.077C158.236 214.446 159.708 215.584 161.413 215.071C162.456 217.016 164.286 217.339 165.412 219.07C167.351 222.081 166.489 226.748 167.743 230.75C168.161 232.056 169.244 233.027 169.747 234.077C170.393 235.463 170.534 236.888 171.406 238.092C170.465 242.028 170.534 246.972 168.414 249.746C167.591 254.334 168.444 258.942 171.406 261.413C182.621 262.206 181.236 249.299 180.087 240.413C181.338 238.658 182.542 236.865 183.754 235.074C186.729 234.271 187.279 231.062 190.752 230.75C191.875 230.951 191.822 232.339 191.756 233.748C192.49 236.335 193.955 238.211 194.755 240.761C196.43 241.739 197.118 243.714 198.422 245.079C197.806 246.912 198.712 249.828 199.426 251.418C200.216 251.625 200.943 251.892 202.095 251.744C204.248 255.539 208.268 260.09 207.431 264.754C206.921 264.224 205.937 264.378 206.085 265.425C206.582 265.609 207.817 265.033 207.764 265.744C207.984 269.091 209.377 272.215 209.759 275.414C210.022 277.533 209.377 279.676 209.759 281.752C210.048 283.362 211.319 285.014 211.757 286.771C212.593 290.072 212.109 293.577 213.429 295.427C212.109 300.258 210.73 314.041 217.761 310.089C217.807 305.623 220.756 303.141 219.101 298.754C218.676 297.668 217.112 296.714 216.767 295.427C216.052 292.837 217.086 289.437 216.424 286.419C215.391 281.67 213.518 279.284 213.761 275.088C213.86 273.409 214.867 272.007 215.095 270.092C215.46 267.034 214.96 263.895 212.767 261.752C210.67 254.989 207.438 246.995 206.766 237.74C210.299 235.015 213.673 240.571 217.428 238.092C222.804 241.406 221.504 251.523 223.103 257.76C223.933 258.145 225.059 258.231 226.099 258.412C226.988 257.638 227.501 256.476 227.765 255.088C225.99 253.886 226.672 251.744 226.099 249.072C225.714 247.258 224.72 245.241 224.43 243.407C223.656 238.29 221.079 232.274 221.767 229.085C222.468 225.757 226.428 225.191 228.433 226.748C228.999 229.98 225.497 238.356 230.767 238.741C233.43 237.276 232.781 234.88 232.775 232.076C232.748 227.304 235.276 223.654 236.781 221.067C237.274 220.215 237.307 219.188 237.775 218.415C238.298 217.523 239.292 216.924 239.776 216.072C240.899 214.113 241.07 210.773 244.105 211.076C245.007 211.405 244.523 213.096 245.777 213.08C246.093 212.507 246.83 212.343 247.443 212.076C249.852 212.445 251.873 209.654 254.118 208.736C254.49 209.466 256.304 208.755 256.452 209.736C257.361 211.629 254.866 216.542 256.452 217.075C259.435 217.845 257.97 211.266 259.783 209.736C261.038 210.572 263.108 209.874 263.783 209.081C265.995 209.904 267.542 208.634 269.445 208.41C270.9 208.245 272.404 208.485 273.793 208.41C276.776 208.202 278.504 207.409 280.801 207.09C283.636 206.656 286.96 207.311 289.794 206.415C290.92 206.047 291.299 204.559 292.796 205.066C294.097 202.719 296.026 201.535 296.46 198.74C297.003 195.301 295.42 194.139 295.124 192.059C294.456 187.386 298.409 182.966 297.458 178.072C296.898 175.156 293.452 173.208 292.128 170.391C291.48 169.025 291.421 167.396 290.792 166.395C288.175 162.173 282.543 160.017 281.456 155.39C283.191 154.531 287.668 155.143 286.131 152.063C282.941 152.184 278.886 152.51 277.793 149.723C278.086 148.255 280.126 148.502 279.455 146.053C278.388 145.77 279.001 147.156 278.125 147.047C276.048 145.253 273.638 144.177 274.455 141.054C274.912 139.303 277.882 138.734 279.123 137.713C279.695 137.269 279.919 136.413 280.459 136.068C281.667 135.268 283.306 135.284 283.79 134.393C284.182 134.676 284.689 134.82 285.456 134.718C286.697 133.553 285.904 132.372 287.128 131.398C287.879 132.023 290.367 130.74 291.46 131.724C293.471 128.844 299.291 129.765 302.132 127.728C302.356 127.728 302.576 127.728 302.807 127.728L302.968 127.218C303.452 127.909 304.433 127.768 304.966 127.218H303.439C303.333 126.336 304.176 126.876 304.466 127.053L304.966 127.218L304.801 127.728C306.569 127.827 307.02 126.599 308.472 126.382C309.268 127.172 311.803 127.3 312.804 126.382L312.31 125.994L312.465 125.385C312.244 125.385 312.027 125.385 311.803 125.385" fill="#696969"/>
<path fill-rule="evenodd" clip-rule="evenodd" d="M147.403 85.3846C147.479 85.7532 147.772 85.9013 148.068 86.0396C148.321 85.0193 146.922 85.6249 147.403 84.3907C146.014 84.2261 146.53 85.5525 147.067 86.0396C147.139 85.7927 147.074 85.3846 147.403 85.3846Z" fill="#696969"/>
<path fill-rule="evenodd" clip-rule="evenodd" d="M150.741 90.0547C150.105 89.3405 150.217 87.8925 149.065 87.7115C149.111 88.995 149.819 89.6301 150.741 90.0547Z" fill="#696969"/>
<path fill-rule="evenodd" clip-rule="evenodd" d="M323.805 123.726C322.929 123.831 322.949 123.019 322.801 122.387C321.754 123.157 321.316 122.811 320.141 123.061C319.684 123.815 321.003 124.305 320.141 124.384C319.318 124.305 319.075 124.421 319.298 124.812L317.807 123.897C317.748 124.342 317.307 124.792 317.537 125.26C318.288 125.665 319.19 125.503 319.973 125.22L319.805 125.73C321.599 125.53 323.008 124.931 323.805 123.726" fill="#696969"/>
<path fill-rule="evenodd" clip-rule="evenodd" d="M208.149 7.86243C208.567 5.25586 208.689 2.60655 208.916 -7.74517e-06L208.149 7.86243Z" fill="#696969"/>
<path fill-rule="evenodd" clip-rule="evenodd" d="M283.952 17.8708C283.873 19.342 284.014 20.8097 284.08 22.2611L283.952 17.8708Z" fill="#696969"/>
<path fill-rule="evenodd" clip-rule="evenodd" d="M142.571 36.8704L142.07 35.8698C142.123 36.1167 142.245 36.38 142.343 36.7683C142.416 36.7881 142.485 36.8309 142.571 36.8704Z" fill="#696969"/>
<path fill-rule="evenodd" clip-rule="evenodd" d="M145.401 82.37L143.966 79.905C144.335 80.8199 144.355 81.8829 145.401 82.37Z" fill="#696969"/>
<path fill-rule="evenodd" clip-rule="evenodd" d="M113.221 92.2138C116.467 94.6591 119.716 96.9859 123.222 98.8849L113.221 92.2138Z" fill="#696969"/>
<path fill-rule="evenodd" clip-rule="evenodd" d="M203.034 279.593L202.596 276.125C202.671 277.263 202.731 278.409 203.034 279.593Z" fill="#696969"/>
<path fill-rule="evenodd" clip-rule="evenodd" d="M202.596 276.124C202.523 274.969 202.454 273.798 202.145 272.577L202.596 276.124Z" fill="#696969"/>
<path fill-rule="evenodd" clip-rule="evenodd" d="M201.315 263.816L201.105 261.591C200.808 262.328 201.187 263.082 201.315 263.816Z" fill="#696969"/>
<path fill-rule="evenodd" clip-rule="evenodd" d="M312.31 125.994L315.704 125.892C314.496 125.852 313.357 124.792 312.31 125.994Z" fill="#696969"/>
</svg>
