<svg width="369" height="340" viewBox="0 0 369 340" fill="none" xmlns="http://www.w3.org/2000/svg">
<path d="M314.714 1.35101C314.938 1.17658 315.208 1.16999 315.326 1.4267C315.748 0.732274 315.191 -0.136588 314.579 0.0180942C314.803 0.380116 314.283 1.08114 314.714 1.35101Z" fill="#696969"/>
<path d="M263.695 4.45795C263.817 4.08934 263.626 3.86551 263.54 3.59563C263.405 3.96424 263.076 4.41845 263.695 4.45795Z" fill="#696969"/>
<path d="M193.54 26.2023C193.77 26.2945 194.003 26.3801 194.239 26.4722C194.336 26.0049 194.787 26.3176 194.838 25.7383L194.809 25.6889C195.093 25.6231 195.299 25.4257 195.481 25.2512C195.672 25.0571 195.844 24.8859 196.087 24.8859L196.254 24.8892L196.298 24.7246C196.343 24.5634 196.376 24.4943 196.426 24.4482C196.513 24.3692 196.52 24.2277 196.437 24.1355C196.358 24.0466 196.214 24.0368 196.124 24.1224C196.023 24.2146 195.96 24.3198 195.915 24.458C195.586 24.5173 195.364 24.7345 195.162 24.932C195.037 25.0637 194.918 25.1821 194.787 25.2381C194.328 25.034 194.224 25.6264 193.803 25.5014C194.109 25.6462 193.489 25.7877 193.54 26.2023" fill="#696969"/>
<path d="M146.773 9.78635C147.257 10.1681 147.843 10.7638 148.191 9.84886C147.753 9.81595 147.904 9.51317 147.548 9.44406C147.488 10.0003 146.875 9.31901 146.773 9.78635Z" fill="#696969"/>
<path d="M150.454 12.3172C150.519 12.1164 150.639 12.0342 150.756 11.9453C150.486 11.8696 150.252 11.8598 150.087 12.0144C150.264 12.0868 150.213 12.2678 150.454 12.3172" fill="#696969"/>
<path d="M179.353 36.4871C179.002 36.678 179.355 36.7998 179.002 36.9939C179.306 37.3658 179.617 36.5332 179.353 36.4871Z" fill="#696969"/>
<path d="M352.069 132.565C351.5 133.243 350.242 132.397 349.525 132.752C349.518 132.759 349.505 132.755 349.495 132.762C349.192 132.894 348.886 132.811 348.521 132.713C348.145 132.607 347.717 132.502 347.273 132.67C345.627 132.291 343.958 131.88 342.651 132.272C341.845 132.176 340.989 132.104 340.107 132.16C338.56 131.584 337.243 131.521 336.051 131.729L336.041 131.785C336.041 131.781 336.035 131.778 336.035 131.781C335.219 131.801 334.402 131.692 333.609 131.597C332.727 131.479 331.805 131.363 330.877 131.419C330.775 131.419 330.699 131.511 330.702 131.61C330.706 131.689 330.752 131.748 330.821 131.775C330.841 131.788 330.873 131.791 330.896 131.788C331.795 131.735 332.69 131.85 333.563 131.962C334.323 132.064 335.107 132.16 335.897 132.15C336.884 132.453 338.701 132.683 339.965 132.667C339.995 132.673 340.021 132.683 340.051 132.68C340.913 132.617 341.772 132.686 342.572 132.782C343.794 133.374 344.495 132.792 345.69 133.328C346.065 132.854 346.927 133.483 347.398 133.22C347.694 133.068 348.01 133.157 348.379 133.252C348.777 133.361 349.238 133.48 349.719 133.272C349.722 133.266 349.722 133.266 349.722 133.266C350.703 133.305 352.056 134.167 352.612 133.252C352.78 132.867 352.425 132.713 352.069 132.565Z" fill="#696969"/>
<path d="M68.5944 25.271C68.4969 25.6527 68.1651 25.5178 67.8758 25.475C67.3408 26.3274 67.1081 26.8211 66.8237 27.7985L66.851 27.8018C66.8188 27.8512 66.7826 27.894 66.7546 27.9433C66.145 28.0486 65.3039 28.7101 65.3826 29.4868C66.356 29.9377 66.7454 29.082 67.1391 28.2395L67.1157 28.2363C67.1608 28.1672 67.2082 28.0947 67.2586 28.0256C67.9337 27.2719 69.2181 26.1431 68.5944 25.271Z" fill="#696969"/>
<path d="M341.565 136.698C340.903 136.487 340.258 136.428 339.619 136.385C339.491 136.372 339.363 136.366 339.238 136.356L339.261 136.323C336.742 135.484 333.368 134.408 330.949 134.585V134.589C330.261 134.454 329.56 134.487 328.885 134.519C328.414 134.546 327.927 134.569 327.453 134.539C327.321 134.523 327.21 134.621 327.2 134.753C327.193 134.858 327.256 134.951 327.348 134.987C327.374 134.997 327.397 135 327.42 135.003C327.921 135.043 328.421 135.01 328.908 134.99C329.599 134.957 330.251 134.921 330.89 135.056C330.903 135.059 330.916 135.056 330.926 135.056V135.059C331.578 135.428 332.078 135.862 332.144 136.487C334.465 136.919 336.298 136.274 338.8 137.109C339.01 137.142 339.076 136.859 339.238 136.794L339.221 136.764C339.343 136.77 339.471 136.784 339.59 136.794C340.265 136.84 340.91 136.886 341.539 137.119L341.499 137.179C342.612 137.689 343.26 137.491 344.086 137.527C344.814 137.557 345.89 138.186 345.913 136.938C344.1 136.415 343.214 136.678 341.565 136.698" fill="#696969"/>
<path d="M340.568 144.33C339.531 144.327 338.481 144.195 337.46 144.06C336.637 143.952 335.788 143.843 334.935 143.804C333.066 143.169 331.525 143.241 329.883 143.122C329.455 143.04 328.934 142.955 328.431 143.073C328.309 143.103 328.23 143.225 328.26 143.343C328.279 143.422 328.335 143.475 328.401 143.504C328.441 143.521 328.484 143.524 328.533 143.514C328.934 143.419 329.376 143.485 329.774 143.557L329.754 143.583C331.732 144.186 333.178 144.682 334.893 144.291C335.729 144.33 336.575 144.439 337.394 144.548C338.428 144.679 339.491 144.814 340.561 144.817C341.815 145.068 343.26 145.742 343.836 144.475C342.859 143.777 341.585 144.261 340.568 144.33" fill="#696969"/>
<path d="M368.393 162.826C368.643 162.441 368.64 163.073 368.946 163.04C369.216 162.484 368.021 162.244 368.393 162.826Z" fill="#696969"/>
<path d="M317.354 191.555C319.602 188.836 314.764 186.348 313.802 188.277C313.417 189.047 314.23 189.557 313.895 190.551C314.816 191.308 316.393 192.032 317.354 191.555Z" fill="#696969"/>
<path d="M308.421 222.906C307.512 220.493 305.372 218.634 304.013 216.412C302.91 215.892 302.696 214.398 301.452 214.316C301.663 214.707 301.682 215.247 301.916 215.616C302.219 216.09 302.877 216.435 303.187 216.906C303.318 217.094 303.401 217.459 303.532 217.679C303.608 217.801 303.601 217.923 303.707 218.058C304.013 218.469 303.855 218.601 303.996 218.973C304.056 219.127 304.411 219.187 304.503 219.332C304.642 219.539 304.5 219.888 304.572 219.993C304.668 220.151 304.984 220.223 305.073 220.345C305.395 220.783 305.517 221.349 306.205 221.579C306.936 223.804 308.569 225.624 310.797 227.181C310.666 225.463 309.625 224.146 308.421 222.906" fill="#696969"/>
<path d="M363.3 247.869C364.015 246.003 364.726 244.137 365.437 242.28C361.553 240.171 358.916 246.809 363.3 247.869Z" fill="#696969"/>
<path d="M316.492 233.677C315.774 232.884 315.185 232.085 314.454 231.456L314.444 231.472C314.411 231.413 314.369 231.347 314.319 231.278L314.365 231.268C313.918 230.62 313.983 229.748 312.858 229.406C312.802 229.336 312.742 229.271 312.686 229.195C312.568 229.04 312.443 228.882 312.295 228.738C312.206 228.662 312.074 228.662 311.989 228.747C311.91 228.83 311.913 228.968 311.995 229.05C312.124 229.172 312.232 229.31 312.341 229.458C312.42 229.56 312.502 229.656 312.584 229.748L312.535 229.764C312.775 230.472 313.226 231.091 313.98 231.571C314.02 231.637 314.053 231.69 314.085 231.739C314.23 232.522 314.487 233.259 315.35 233.72C315.106 234.043 315.379 234.076 315.465 234.247C315.807 234.885 316.057 235.234 316.686 235.675C317.045 235.932 317.358 236.261 317.802 236.1C318.362 234.981 317.028 234.27 316.492 233.677" fill="#696969"/>
<path d="M256.207 213.217C255.749 213.97 256.793 213.506 256.207 213.217Z" fill="#696969"/>
<path d="M256.467 215.886C256.967 215.613 257.069 216.017 257.352 215.26C257.072 215.244 256.595 214.773 256.457 215.079C256.671 215.221 256.358 215.247 256.295 215.501C256.48 215.573 256.332 215.794 256.467 215.886Z" fill="#696969"/>
<path d="M0.534911 122.474C0.353535 122.813 0.0421345 123.343 0 123.869C0.961523 125.015 2.45335 124.103 2.31937 122.833C1.97604 122.609 1.25087 122.77 0.534911 122.474" fill="#696969"/>
<path d="M155.273 185.088C155.18 184.449 154.624 184.469 153.978 184.275C153.203 185.055 155.092 185.802 155.273 185.088Z" fill="#696969"/>
<path d="M296.728 239.266C296.491 239.76 296.399 240.181 296.386 240.579C296.982 240.763 296.86 240.967 297.363 240.954C297.933 240.484 297.907 240.095 297.758 239.503C297.317 239.203 297.14 239.503 296.728 239.266Z" fill="#696969"/>
<path d="M264.278 265.483C264.544 265.713 264.209 266.207 264.571 266.398C264.689 266.194 264.916 266.414 264.989 266.556C265.203 266.036 265.071 265.667 264.805 265.368C264.716 265.595 264.386 265.295 264.278 265.483" fill="#696969"/>
<path d="M141.465 228.352C140.366 227.072 140.126 225.4 138.318 224.429L138.314 224.433L138.292 224.377C138.27 224.318 138.248 224.252 138.225 224.192C138.079 223.073 137.981 221.941 136.798 221.286C136.76 219.292 135.181 217.992 134.547 216.264C133.972 216.096 133.866 215.715 133.207 215.589C132.875 216.778 133.28 217.64 133.5 218.588C133.105 218.479 132.777 218.512 132.498 218.683C132.594 219.559 132.976 221.227 133.36 221.899C133.433 222.03 133.839 221.974 133.92 222.112C134.168 222.553 134.239 223.498 134.874 222.955C134.648 222.553 134.716 221.938 134.568 221.234C134.039 220.645 133.59 219.463 133.866 218.887C133.873 219.285 134.4 219.252 134.603 219.486C134.652 219.549 134.516 219.868 134.579 219.957C134.919 220.437 135.651 220.914 135.935 221.438C136.457 222.409 136.472 223.807 137.703 224.357H137.714C137.734 224.426 137.761 224.502 137.787 224.571L137.814 224.64C137.819 224.64 137.819 224.64 137.819 224.643C138.275 226.569 139.451 228.171 140.215 229.959C141.79 230.801 141.278 232.568 142.714 233.477C143.071 233.243 143.465 233.082 143.702 232.572C143.233 231.235 142.303 230.11 141.388 228.968C141.419 228.764 141.295 228.622 141.465 228.352" fill="#696969"/>
<path d="M265.522 268.521C265.4 268.725 265.18 268.501 265.104 268.363C265.028 268.705 265.015 269.018 265.252 269.218C265.367 269.166 265.835 268.682 265.522 268.521Z" fill="#696969"/>
<path d="M265.446 269.136C265.094 269.281 265.318 269.58 265.512 269.801C265.578 269.541 265.921 269.152 265.446 269.136Z" fill="#696969"/>
<path d="M139.329 230.584C138.913 230.594 138.514 230.66 137.967 230.383C136.588 229.221 137.279 227.138 135.98 225.94C135.246 226.184 135.823 227.138 135.566 227.862C136.423 229.412 136.508 231.301 137.917 232.608C137.888 232.93 138.043 233.171 138.068 233.47C138.538 233.572 138.576 233.859 138.61 234.155C138.887 234.257 139.171 234.369 139.448 234.474C139.78 235.33 140.329 236.439 141.728 236.468C142.025 235.794 141.738 235.382 141.706 234.856C139.961 233.855 140.739 231.732 139.329 230.584" fill="#696969"/>
<path d="M55.4878 198.407C55.5842 198.647 55.9891 198.663 56.2426 198.532C56.1346 198.278 55.6369 198.054 55.4878 198.407Z" fill="#696969"/>
<path d="M217.878 266.987C215.295 267.583 213.858 271.509 217.04 272.118C217.52 271.489 218.208 271.45 218.66 270.808C218.918 270.446 218.878 269.751 219.247 269.274C218.985 268.813 218.841 268.293 218.891 267.698C218.472 267.497 218.156 267.25 217.878 266.987" fill="#696969"/>
<path d="M37.0323 211.061C36.3776 213.223 34.2047 213.098 33.8716 215.142C34.1955 215.264 34.5234 215.392 34.8525 215.514C36.0458 214.118 37.7213 212.446 38.5893 211.179C38.354 210.752 37.4744 211.091 37.0323 211.061Z" fill="#696969"/>
<path d="M309.625 338.875C309.573 339.013 309.517 339.151 309.467 339.293C309.586 339.47 309.77 339.618 310.112 339.697C310.191 339.451 310.31 339.273 310.468 339.194C310.363 338.934 309.882 338.746 309.625 338.875Z" fill="#696969"/>
<path d="M97.0528 277.074C96.9046 277.607 96.3839 277.304 96.002 277.318C95.7512 277.88 95.3516 278.101 94.7884 277.976C94.0902 278.993 92.677 279.542 92.0984 279.993C92.1329 279.812 91.9709 279.845 91.8179 279.885C91.3666 280.684 90.441 280.444 89.8353 280.888C89.7207 281.817 88.8514 282.251 88.5544 282.962C88.116 284.038 88.4336 284.838 88.5765 285.851C89.1937 286.223 90.2467 286.674 91.2856 286.727C91.5812 286.355 92.0572 286.381 92.1895 285.634C92.2705 285.848 92.8067 285.927 93.073 285.812C92.9249 285.684 92.8647 285.522 92.9572 285.282C93.6514 285.443 93.9845 284.821 94.6778 284.979C95.2459 283.433 96.3697 283.021 96.429 281.645C98.1815 280.902 99.0252 278.144 97.0528 277.074Z" fill="#696969"/>
<path d="M80.9962 290.169C80.8432 290.577 81.6598 290.801 81.9235 290.68C81.9992 290.341 82.0094 290.025 81.7691 289.824C81.5762 290.071 81.0476 289.593 80.9962 290.169" fill="#696969"/>
<path d="M126.459 315.86C125.776 317.203 124.959 316.985 124.499 318.476C124.921 318.522 124.675 318.861 124.954 318.97C125.204 318.838 125.537 318.888 125.899 319.009C126.007 318.463 127.461 318.536 127.379 317.654C128.313 317.759 128.787 316.827 129.214 315.791C128.26 314.757 127.338 315.873 126.459 315.86" fill="#696969"/>
<path d="M318.964 10.3425C319.224 10.4774 319.339 10.3063 319.583 10.4182C319.464 10.9974 319.754 12.0045 320.113 12.3829C320.297 12.5771 320.626 12.4027 320.725 12.4619C320.732 12.4619 320.735 12.7614 320.758 12.7877C321.525 13.5908 323.033 12.383 323.704 12.6331C323.612 11.8893 324.376 12.1065 324.389 12.0934C324.537 11.9486 324.359 11.7082 324.409 11.6227C324.478 11.5009 324.751 11.6095 324.85 11.3067C324.938 11.0336 324.613 10.5531 324.998 10.0858C324.912 9.69411 324.59 10.1286 324.632 9.783C325.442 9.02934 323.826 8.36783 323.875 7.57138C323.174 7.30151 322.476 7.03487 321.775 6.77158V6.84406C321.611 6.5709 321.42 6.40957 321.189 6.37008C321.143 6.36021 321.094 6.39311 321.084 6.44577C321.077 6.49184 321.11 6.54452 321.16 6.55111C321.314 6.57414 321.453 6.68603 321.578 6.86375C321.561 6.90982 321.545 6.95266 321.532 6.99873C321.169 6.91975 321.321 6.62684 320.883 6.59064C320.761 7.01519 320.666 7.0579 320.495 6.765C319.998 7.89056 319.175 8.29542 318.763 9.62503C318.921 9.82579 319.125 10.0068 318.964 10.3425" fill="#696969"/>
<path d="M277.88 10.8757C277.863 10.8394 277.824 10.8163 277.774 10.7933C277.807 10.8196 277.84 10.8427 277.88 10.8757Z" fill="#696969"/>
<path d="M239.641 76.6519C239.069 76.9448 238.736 76.8559 238.091 77.343C237.953 77.2476 238.103 77.027 237.921 76.9546C238.275 76.1911 239.173 76.6486 239.662 76.1747C240.149 76.382 239.186 76.5235 239.641 76.6519ZM189.477 210.195C189.365 210.228 189.234 210.274 189.066 210.337C189.065 210.337 189.062 210.34 189.062 210.34L189.055 210.324C189.307 210.241 189.428 209.866 189.761 209.958C189.756 210.011 189.754 210.064 189.739 210.1C189.657 210.13 189.57 210.156 189.477 210.195V210.195ZM154.26 35.0719C155.276 34.8975 157.347 35.8157 157.84 36.6023C156.976 37.5238 154.327 36.1975 154.26 35.0719ZM301.702 178.851C301.949 178.505 301.531 178.459 301.636 178.179L301.633 178.183C301.669 178.051 301.659 177.906 301.633 177.742C301.633 177.702 301.593 177.673 301.551 177.676C301.505 177.682 301.478 177.719 301.485 177.761C301.501 177.896 301.504 178.012 301.481 178.114C300.961 177.422 300.958 176.508 300.652 175.724C300.813 174.967 301.238 174.78 301.435 174.102C302.005 174.174 302.439 173.934 302.871 173.687C302.643 172.743 304.355 173.095 304.214 172.278C306.541 172.654 308.753 174.322 310.675 175.069C311.192 174.237 311.87 173.763 312.683 173.595C314.329 170.626 310.313 170.07 309.299 168.612C307.864 168.135 306.86 167.457 306.399 166.545C306.682 165.999 306.389 165.706 306.215 165.354C306.663 165.212 306.429 164.771 306.482 164.656C306.975 163.606 308.341 162.761 309.27 161.553C310.774 161.836 313.368 161.997 314.928 162.277C316.709 160.888 316.173 158.647 315.623 157.09C315.439 157.021 315.248 156.952 315.063 156.879C315.248 155.81 314.247 155.122 313.253 154.905C313.032 154.079 313.536 154.428 313.872 153.697C313.407 153.598 313.371 153.309 313.335 153.019C313.885 152.107 313.105 150.801 313.918 149.392C313.009 148.954 314.777 147.687 314.704 146.486C315.58 146.368 316.442 146.219 317.371 146.226C317.519 145.966 317.288 145.877 317.252 145.696C318.322 146.16 319.879 145.571 320.751 145.755C321.262 144.798 321.298 144.248 321.769 143.099C321.933 143.132 322.032 143.037 322.144 142.938C322.305 142.971 322.466 142.974 322.615 142.974C322.805 142.981 322.98 142.971 323.148 143.05C323.253 143.093 323.378 143.044 323.421 142.932C323.464 142.823 323.414 142.705 323.306 142.658C323.069 142.56 322.838 142.56 322.621 142.556C322.447 142.55 322.295 142.55 322.144 142.501L322.177 142.454C321.377 142.24 320.709 142.273 320.797 141.444C319.293 140.677 318.128 140.309 316.656 139.706C316.321 138.545 316.525 136.557 317.644 135.438C318.339 135.685 318.632 135.046 319.395 135.464C319.51 135.04 319.616 134.997 319.784 135.296C319.586 134.635 319.254 134.283 319.619 133.624C320.84 133.42 322.068 133.229 323.339 133.124C323.651 132.848 323.283 132.328 323.605 132.423C323.734 132.621 323.892 132.338 324.356 132.551C324.823 132.209 325.271 131.834 325.814 131.669C326.584 131.479 327.717 132.117 328.115 131.103C327.355 130.87 326.16 130.909 325.495 130.422C325.001 130.063 325.202 129.619 324.777 129.346C322.43 128.201 320.893 127.934 318.098 127.118C318.092 126.196 317.901 125.35 318.414 124.199C318.029 123.754 317.957 122.672 318.355 122.247C317.809 121.954 317.776 121.434 318.138 120.726C317.384 120.529 318.069 120.499 318.023 120.2C317.983 119.989 317.786 119.831 317.763 119.621C317.707 119.18 317.496 118.502 317.506 117.761C317.529 116.715 318.108 115.346 318.042 114.276C319.082 112.887 319.576 111.854 320.445 110.076C321.66 109.658 321.248 107.621 322.058 106.687C321.433 106.483 320.893 106.496 320.192 106.134C320.784 105.762 319.724 105.084 319.672 104.975C319.968 104.136 319.734 102.991 320.58 102.592C320.893 101.223 321.752 101.075 322.206 100.012C323.391 99.6436 324.195 99.5548 325.225 99.2421C325.297 99.0578 325.366 98.8669 325.439 98.6826C326.114 98.8965 326.364 98.1626 327.019 98.3272C327.476 97.1852 328.655 97.6689 329.3 96.958C329.672 96.8264 329.471 97.0338 329.863 97.172C329.945 97.014 329.988 96.7639 330.163 96.8034C330.357 96.8692 330.442 96.9844 330.531 97.1029C331.183 96.6323 331.861 96.5533 332.967 96.5895C333.467 96.1748 334.462 95.7009 335.021 96.2538C335.739 95.1052 337.335 95.9082 338.109 94.8715C338.343 95.3981 338.599 94.6411 339.06 94.911C339.58 93.9269 340.815 94.5226 341.512 93.9269C341.417 93.8512 341.243 93.8183 341.292 93.6834C342.105 93.8743 342.839 93.8611 343.428 93.5419C344.538 93.8611 345.413 93.6537 345.973 92.7454C345.818 92.6598 345.904 92.469 345.989 92.2748C345.555 91.9029 345.216 91.5738 344.699 91.4619C344.429 91.4026 342.813 91.837 342.595 91.9358C342.026 92.2057 341.664 92.2879 341.16 92.3505C340.426 92.4426 340.038 92.6303 339.442 92.6566C338.948 92.6763 338.761 92.5479 338.267 92.3669C338.181 92.5216 338.142 92.7751 337.964 92.7356C336.68 92.2814 336.051 93.2852 334.998 93.3609C334.146 95.2105 332.068 94.1146 331.222 95.2829C330.999 94.809 330.693 95.6219 330.136 95.1907C329.577 95.8424 328.609 95.5692 328.013 96.1418C326.946 95.9115 325.251 96.5401 323.704 96.0991C321.541 97.8368 318.931 97.3728 316.765 98.7353C315.369 98.5543 313.908 97.6196 314.342 96.6882C314.273 96.7869 314.161 96.8066 314.013 96.7211C314.023 95.7765 313.378 94.674 312.831 94.3482C312.568 92.7718 313.338 91.3105 314.016 89.9941C313.049 89.4214 313.572 88.184 313.664 87.1374C314.734 86.4068 314.632 84.3564 315.218 83.0827C314.941 82.6253 314.458 82.2632 314.662 81.5918C313.121 80.486 310.758 80.0088 309.401 79.423C309.214 78.2974 308.931 76.9975 309.296 76.3392C309.461 76.0463 309.171 75.783 309.234 75.6744C309.395 75.3716 309.642 75.5592 309.727 75.2202C309.806 74.8977 309.507 74.5686 309.767 74.2724C309.905 74.3316 310.043 74.381 310.185 74.437C310.84 72.9263 311.837 72.3043 312.631 70.5633C313.997 70.1453 315.488 69.283 317.183 70.3757C318.625 70.0894 319.955 69.882 320.37 67.9139C320.096 67.2755 319.705 66.8806 320.152 66.3869C318.687 64.8039 318.612 62.6449 319.422 60.3378C319 59.6796 319.3 59.288 319.441 58.5804C319.576 57.9617 319.484 57.208 319.668 56.7472C320.014 55.8685 320.939 55.546 321.275 54.6376C321.416 54.2526 321.071 53.8148 321.509 53.6075C320.893 53.5746 321.183 53.0447 321.443 52.9361C320.876 52.8439 320.821 52.5247 320.955 52.1166C320.254 52.0409 320.554 51.5209 319.945 51.409C319.665 50.1913 319.402 48.4371 318.971 47.6736C319.227 46.8969 319.129 46.2881 319.3 45.5574C320.353 44.7511 322.137 44.1653 323.773 43.8987C323.816 43.5334 324.336 42.9508 324.063 42.7303C324.102 42.5362 323.418 41.8384 323.773 41.8187C322.325 41.5422 321.156 40.6339 320.788 39.5544C320.844 38.6329 321.061 38.1393 320.89 37.1914C321.222 36.9808 321.462 36.5694 321.647 36.0363C320.995 35.9441 321.472 35.3484 321.219 35.0752C319.711 34.5914 318.503 34.5256 317.45 34.4367C316.89 33.8016 316.416 33.1236 315.208 32.7747C315.708 32.2745 313.595 31.9158 313.131 31.5044C312.585 31.0239 312.532 30.4512 312.351 29.7634C310.84 28.6247 311.143 26.7619 310.534 25.7087C311.107 25.0998 310.004 24.2508 310.498 23.2898C309.467 22.4835 310.721 20.6733 311.06 20.1402C311.212 19.8999 311.225 19.5675 311.38 19.3042C311.86 18.4913 312.673 17.7179 313.042 17.0531C313.177 16.8095 313.049 16.599 313.17 16.3028C313.631 15.1081 314.833 14.0023 314.836 12.7681C315.866 12.3633 316.512 10.0233 316.525 8.76935C313.365 8.87795 314.625 14.7164 311.788 15.2924C311.679 15.7564 311.278 16.5529 310.609 16.2797C310.488 17.1255 309.951 17.0564 309.484 17.1386C309.698 17.2999 309.207 18.0569 308.799 17.6784C308.457 18.9883 307.515 18.929 306.547 19.3766C305.385 18.8895 304.875 18.1128 303.68 17.6455C304.145 16.7305 302.851 15.7301 303.295 14.4531C303.052 14.3675 302.983 14.2095 302.986 14.0121C301.926 13.6468 300.333 13.6534 300.267 14.4137C299.753 14.1339 299.552 14.5519 299.128 14.463C298.525 15.4503 297.554 15.6017 296.215 14.9501C296.231 13.9858 295.109 13.4329 294.816 12.3336C293.288 11.58 291.896 12.2777 291.379 12.9458C289.16 12.6232 287.89 12.2744 286.267 11.6359C286.336 10.2602 285.444 9.07214 284.029 8.69695C283.127 9.33543 282.218 10.0463 281.872 11.3957C280.849 12.2908 278.574 11.3727 277.88 10.8757C277.893 10.902 277.893 10.9349 277.863 10.9876C276.925 10.7934 276.79 10.948 275.921 11.0435C275.147 12.7812 273.956 12.304 272.787 13.3703C271.171 12.6068 270.954 11.8235 269.384 10.9547C269.137 11.5471 268.442 12.1526 268.116 11.7511C267.955 12.7417 266.958 13.7225 266.125 14.0318C265.792 14.8184 264.67 15.9506 264.028 16.5956C263.383 17.2341 263.327 17.1025 262.652 17.6751C262.135 18.1095 261.921 18.8467 261.483 19.4721C260.654 20.6569 259.673 21.8812 258.87 22.9607C257.741 23.191 256.901 24.0895 256.035 24.9189C255.19 25.2644 254.472 24.7839 253.392 24.7115C253.02 24.6884 252.918 24.9814 252.48 25.0044C251.611 25.0505 251.029 24.5964 250.384 24.2014C249.956 22.3255 247.813 22.5262 246.14 21.4632C245.917 20.2126 243.788 19.1956 242.561 19.9328C242.485 20.6042 243.218 21.2032 244.023 21.1308C243.927 21.3743 243.992 21.5323 244.145 21.6606C246.262 22.4077 248.316 24.389 250.795 25.6429C250.69 26.2847 251.355 26.8771 251.605 27.713C251.914 28.7629 252.095 30.2999 251.723 31.6031C251.361 32.8571 250.416 34.1998 250.12 35.796C250.031 36.2699 250.153 36.7734 250.058 37.2144C249.88 38.0569 249.432 38.8172 249.291 39.6499C249.179 40.2851 249.383 40.8281 249.264 41.3975C249.093 42.1972 248 44.3364 247.316 44.8169C245.946 45.7746 244.34 43.8888 242.818 43.5828C242.443 43.2438 242.771 42.523 242.056 42.6481C241.927 41.8384 241.56 41.1408 241.543 40.2094C241.543 40.2357 241.78 40.1403 241.79 39.9856C241.886 38.5375 241.904 35.5031 242.864 33.8246C242.412 32.7978 243.348 31.8006 243.564 30.7277C243.772 29.6811 243.264 28.7958 243.494 27.9763C243.142 27.667 242.942 27.3642 242.814 27.2391C242.133 26.9034 241.949 27.9565 241.482 27.3707C241.558 28.1869 240.531 27.973 240.019 28.256C239.489 29.8654 238.938 31.3069 239.579 31.9355C238.887 32.9788 240.077 34.4236 239.502 35.9079C239.376 36.2304 238.805 36.6911 238.547 37.142C238.052 38.0306 237.904 38.5967 237.413 39.2747C236.959 38.9521 236.738 39.4524 236.365 39.5149C235.442 39.6696 234.648 39.1496 233.666 39.4425C232.701 38.9324 232.124 39.2813 231.18 38.8172C230.73 37.7772 230.534 36.6352 231.151 35.1213C230.427 34.1702 231.142 32.574 230.785 31.4583C231.357 30.4874 230.842 29.3322 230.874 28.2857C230.887 27.9434 231.113 27.5978 231.11 27.2555C231.108 27.1601 230.868 27.1732 230.883 27.012C230.94 26.2813 230.985 26.1366 230.748 25.6758C229.986 25.4093 229.371 24.9945 228.655 24.876C228.151 25.5705 227.328 25.7219 226.928 26.4591C226.209 27.792 226.884 29.2072 226.658 30.5236C226.895 31.2806 228.027 32.0178 227.972 32.9492C227.945 33.4757 227.559 34.4631 227.312 35.095C226.92 36.1218 226.335 37.7015 225.44 37.9056C225.316 38.4091 225.084 38.6658 224.876 38.9686C223.082 39.199 218.351 39.7322 219.301 36.3588C218.652 35.5689 218.301 34.6441 218.286 33.5712C216.708 31.8598 214.993 32.6826 214.248 34.9139C214.823 35.0785 214.544 35.6281 214.814 35.9342C214.13 36.8557 215.189 38.0932 214.922 39.0147C214.653 39.9395 213.83 40.4595 212.721 40.578C212.425 41.1441 212.205 41.1836 211.508 41.2362C211.608 41.3086 211.626 41.4139 211.539 41.5719C210.02 41.1078 209.32 42.4802 208.169 42.8456C208.268 42.918 208.443 42.9542 208.398 43.0957C207.625 42.4901 206.787 43.5301 205.61 42.8324C205.53 43.1648 205.377 43.3425 205.121 43.28C204.414 43.099 203.212 42.7172 201.882 42.5296C200.837 41.5522 200.181 39.6499 199.367 38.2051C199.396 37.9813 199.294 37.9056 199.528 37.7806C198.724 36.9446 198.263 35.954 196.934 35.3484C196.549 35.6117 196.01 35.536 195.373 35.2365C195.294 35.401 195.205 35.5491 194.989 35.4076C193.919 36.7208 193.459 39.5149 194.327 40.9202C194.113 41.5093 193.976 42.0721 194.292 42.6711C193.562 43.3985 193.266 44.1686 192.517 44.399C191.714 46.4098 190.937 49.1019 189.327 50.2308C188.405 50.244 187.862 51.0931 186.921 51.07C187.137 51.2247 186.825 51.2412 186.762 51.4913C186.16 50.9154 185.369 51.9455 184.399 51.386C184.268 51.5275 184.129 51.646 183.956 51.7019C183.17 51.3169 182.664 51.5868 181.979 51.4255C181.821 52.1068 181.223 51.8105 180.822 51.9455C180.918 52.0179 180.937 52.1232 180.854 52.2779C179.793 52.0508 179.056 53.0842 177.346 52.2186C177.396 50.6916 176.502 49.5858 176.722 47.983C176.262 47.8777 176.114 47.5453 176.468 47.4005C175.476 47.3116 175.309 45.4291 174.377 45.3205C174.698 44.8861 173.892 43.642 173.267 43.6124C173.095 43.1484 172.805 42.7369 172.47 42.3486C169.52 42.1511 165.97 40.7195 167.189 37.2869C166.455 36.7044 166.036 35.5031 164.875 34.9601C163.985 34.5454 159.614 33.9167 159.304 34.4367C158.693 34.2788 158.211 34.4038 157.782 34.6572C156.483 34.2195 155.872 34.0517 155.317 33.558C155.385 32.7748 155.025 31.2081 154.161 30.7112C153.984 30.6092 153.887 30.8988 153.775 30.8823C153.324 30.8395 152.781 30.4808 152.272 30.6289C151.644 31.4813 150.827 31.896 150.015 32.3338C149.014 32.4358 147.865 31.715 146.973 31.4945C147.152 31.1062 146.57 30.9646 147.1 30.7342C146.295 30.0431 145.476 29.5659 144.552 29.4441C144.241 29.7469 143.662 30.3821 143.392 29.9642C143.29 30.7804 142.674 30.4348 142.577 31.2543C141.02 31.5011 139.306 31.5175 137.881 31.3826C137.217 30.7244 136.784 29.9642 136.166 29.2862C136.244 29.3191 136.326 29.3454 136.406 29.3783C136.441 29.2862 136.474 29.1907 136.512 29.0986C136.423 29.0624 136.324 29.0228 136.232 28.9899C136.194 29.0755 136.167 29.1644 136.133 29.2499C135.862 28.9505 135.553 28.6707 135.165 28.4239C132.896 28.6246 133.616 31.3761 132.493 33.331C132.118 33.2652 131.816 33.3737 131.492 33.4263C131.538 33.8805 130.501 34.1405 129.857 33.9266C129.712 34.4762 129.152 34.134 128.753 34.3051C128.659 34.3446 128.691 34.6869 128.589 34.7264C128.483 34.7659 128.284 34.5322 128.173 34.5651C127.586 34.733 126.654 35.2859 126.243 35.4307C126.293 35.4076 126.146 35.118 126.016 35.1871C125.662 35.3517 125.247 35.8947 124.945 35.8947C124.855 35.8947 124.754 35.6281 124.716 35.6446C124.549 35.7301 124.453 36.1284 124.114 36.3785C123.829 36.5958 123.352 36.6089 123.149 36.8129C122.707 37.2572 122.816 37.6357 122.582 37.8759C122.41 38.0537 121.957 38.0175 121.615 38.3038C120.905 38.9159 120.986 39.9329 120.105 39.3307C119.394 40.1633 118.183 39.877 117.225 40.1534C116.628 41.0388 115.796 40.7129 115.674 42.1281C117.071 43.8296 115.93 45.5443 115.144 47.6901C114.563 49.3027 113.46 50.8463 112.143 51.3498C111.812 50.9549 110.991 51.7019 110.343 51.4617C110.208 52.1166 109.767 52.0738 109.322 52.0343C108.713 53.2817 108.283 53.6437 108.605 54.3249C108.695 54.1735 108.886 54.2558 109.081 54.3447C109.183 55.4209 110.492 55.9541 110.624 57.0171C110.374 57.4943 109.909 58.2052 110.122 58.7449C109.086 59.3242 108.539 60.3839 108.142 61.8386C108.353 62.4408 108.886 62.895 108.922 63.5829C110.589 63.912 110.162 65.1823 110.514 66.1071C109.855 67.6507 109.024 68.7236 108.688 70.0565C109.511 70.8068 109.761 71.8139 111.196 72.2977C110.906 72.8868 111.697 73.002 111.714 73.4496C110.635 76.9514 110.951 79.8245 114.117 81.4207C113.855 82.1546 114.441 82.5166 114.036 83.3131C114.609 83.5599 114.529 84.0963 114.503 84.6131C115.161 85.5181 115.461 85.9394 116.595 86.6964C116.061 86.93 116.744 86.9004 116.711 87.2164C116.371 88.026 116.502 88.6249 116.77 89.1647C118.061 89.326 118.742 90.8728 120.053 91.0571C120.504 91.1196 120.356 91.2479 120.838 91.5178C122.1 92.232 122.627 92.3966 123.175 93.3707C123.006 94.1277 123.318 94.6773 123.555 95.2598L123.497 95.2368C123.454 95.2236 123.4 95.2467 123.383 95.2928C123.36 95.3389 123.391 95.3948 123.433 95.4112L123.506 95.4409C123.307 95.895 123.898 96.7014 124.729 96.8462C124.729 96.8462 124.894 96.6256 124.978 96.6223C125.678 96.6092 125.708 96.3985 126.222 96.2932C127.118 96.1155 127.993 96.4117 127.995 95.8523C129.05 96.4973 130.163 96.2406 131.401 96.9943C131.323 97.1851 131.35 97.3266 131.382 97.4682C132.617 98.1692 133.766 97.6163 134.703 98.416C134.952 98.6201 134.746 98.9492 134.686 98.8899C135.113 99.3013 135.64 99.3968 135.814 100.121C135.89 100.025 135.928 99.8477 136.063 99.897C135.923 100.654 136.965 100.881 137.034 101.546C136.91 102.059 136.869 103.139 136.257 103.172C136.149 104.222 136.249 105.183 136.605 106.028C137.05 106.018 137.473 106.107 137.142 106.716C138.34 107.23 138.795 107.361 140.079 107.835C140.177 107.911 140.197 108.016 140.11 108.171C141.156 107.835 141.462 108.852 142.543 108.938C142.525 109.494 142.785 109.951 142.762 110.461C142.765 110.406 142.454 110.422 142.43 110.498C142.417 110.517 142.659 111.107 142.633 111.215C142.485 111.887 141.807 112.532 141.309 113.43C140.692 113.779 139.824 113.578 139.203 113.911C137.229 113.697 136.488 115.23 135.524 116.83C134.932 116.458 134.639 116.761 134.157 116.629C134.201 116.468 134.441 116.484 134.265 116.349C133.144 116.336 132.844 114.763 132.069 114.546C132.226 113.703 131.364 113.318 131.588 112.446C129.975 111.482 130.252 109.491 130.302 108.266C129.835 107.819 129.621 107.253 129.662 106.585C128.174 106.018 129.349 104.442 129.422 103.445C129.254 103.757 129.107 103.142 128.912 103.093C128.153 103.103 127.563 105.735 127.132 104.811C126.644 105.156 127.188 105.541 126.762 105.795C126.569 105.683 126.613 105.469 126.445 105.35C126.254 106.045 125.865 106.292 125.49 106.591C125.532 106.423 125.668 106.203 125.513 106.117C125.133 106.548 125.166 107.21 124.333 107.108C124.477 107.197 124.493 107.348 124.509 107.496C124.21 107.091 123.397 107.434 123.001 107.243C122.946 107.213 123.159 106.917 122.969 106.91C122.924 106.91 122.793 107.263 122.672 107.276C122.174 107.325 121.523 107.058 121.147 107.496C120.989 107.003 120.289 107.473 120.005 107.539C118.818 107.22 118.191 106.654 117.895 105.933C118.673 106.334 117.325 105.255 117.711 104.742C116.653 104.373 116.225 103.744 115.242 103.639C114.932 103.468 115.169 103.056 114.705 102.951C113.505 102.227 112.3 101.974 111.017 101.704C110.48 101.875 110.012 102.217 109.214 101.816C109.04 102.461 108.394 102.066 107.967 102.142C107.552 102.197 108.054 102.655 107.612 102.645C106.146 102.846 105.125 102.991 103.95 103.01C104.045 103.08 104.225 103.122 104.176 103.257C102.304 102.54 101.338 103.432 99.6271 102.161C100.304 101.845 98.943 101.207 99.6346 100.881C99.2913 100.802 99.1076 100.654 98.9891 100.476C99.1024 100.302 99.29 100.285 99.344 99.9661C98.7887 99.3869 98.5648 99.4264 98.633 98.8965C98.0954 98.8373 97.3176 98.5674 96.8459 98.5345C96.6092 99.0117 96.33 98.732 96.384 99.3178C96.1141 98.709 96.0075 99.7818 95.5265 99.4725C95.0726 100.378 94.9363 100.73 94.6687 101.71C93.9771 101.934 94.0311 102.826 93.5232 103.033C93.1759 102.671 92.7503 102.81 92.2091 102.694C91.7601 101.625 88.8094 100.085 89.2399 101.236C87.787 101.092 87.7498 104.119 86.8034 105.113C85.9225 105.419 84.7898 105.726 83.9962 105.327C83.7997 105.222 83.0639 104.488 83.0076 104.143C83.0152 104.195 83.3944 104.198 83.3368 104.11C83.2825 104.021 82.8803 103.942 82.6936 103.705C82.0958 102.945 82.218 102.128 80.6376 101.961C80.423 102.662 79.7673 102.385 79.3196 102.892C78.39 103.948 78.4183 105.91 78.0829 107.388C77.3215 107.799 77.1839 108.256 76.5153 108.553C75.5894 108.154 74.6252 108.306 73.8368 108.013C73.7364 107.977 73.4227 107.542 73.3842 107.516C72.9625 107.266 71.952 106.996 71.4582 107.105C71.3088 107.137 71.1096 107.585 70.9154 107.694C70.3035 108.026 69.8637 108.02 69.5075 108.441C69.2889 108.694 69.4585 109.092 69.3235 109.333C69.2376 109.497 68.8014 109.724 68.5868 110.011C68.1585 110.59 67.9015 111.014 67.6134 111.722C66.8405 111.551 66.6042 112.581 65.7862 112.305C64.6354 113.855 63.6248 115.517 63.6709 117.426C62.8532 117.965 62.4417 118.482 61.7732 118.62C59.6605 119.061 58.0045 116.922 56.3918 115.925C55.3065 115.257 54.1725 115.211 53.2801 114.417C53.2607 114.401 53.4111 114.157 53.3907 114.138C53.0036 113.848 52.2143 113.654 51.9582 113.272C51.9364 113.242 52.0945 113.012 52.0661 112.992C51.7113 112.732 51.1869 112.676 50.8074 112.512C50.4746 111.311 48.7438 110.939 48.2306 109.606C47.6443 109.471 47.7793 109.527 47.251 109.234C47.6107 108.164 45.1702 106.956 44.8243 108.464C45.2423 109.527 46.5501 109.951 47.6121 110.814C48.1983 111.294 48.5496 112.084 49.0562 112.486C49.9676 113.21 51.0529 113.391 51.0582 114.368C52.2952 114.875 53.5952 116.356 53.662 117.61C54.508 117.929 54.6136 118.577 55.6025 118.831C55.5485 118.969 55.4945 119.107 55.4428 119.249C55.7012 119.394 55.7941 119.17 55.9675 119.127C55.9883 120.236 57.4143 120.384 57.9735 121.016C57.8409 121.786 58.4673 122.181 58.3616 122.928C58.1302 124.626 56.3816 125.607 55.7503 126.413C55.5755 126.338 55.6255 126.163 55.3849 126.114C55.2499 126.367 55.4237 126.486 55.3079 126.726C54.8605 126.311 54.1699 126.71 53.3855 126.315C52.8687 126.69 52.0921 126.891 51.6227 127.565C51.0529 128.378 51.1263 129.422 50.8037 130.132C51.444 131.768 51.975 133.233 50.5684 134.529C50.4795 134.612 50.1207 134.552 50.0411 134.648C49.3004 135.504 48.781 136.718 48.1973 137.791C47.2431 138.12 45.6861 138.515 44.3216 138.712C43.7482 139.114 44.1468 139.084 43.6169 139.723C43.3288 140.065 43.131 139.818 42.9819 140.121C41.5236 143.037 45.4507 143.146 47.4063 144.057C47.1055 144.419 47.6262 144.419 47.8603 144.551C48.2359 146.98 48.0031 150.356 46.5794 153.351C46.4047 152.94 46.0742 153.088 45.9984 153.615C45.0725 153.045 44.2225 154.786 42.9832 154.381C42.5306 153.575 43.1027 152.321 42.8235 151.436C42.2412 150.422 40.9436 149.84 39.7813 150.597C39.7415 150.62 39.4304 151.403 39.5153 151.294C39.4212 151.413 39.2721 151.159 39.1295 151.469C38.8734 152.015 39.0239 152.71 38.6252 153.193C38.831 153.427 39.3827 153.684 38.831 153.921C40.5773 155.112 41.5032 154.75 43.2584 155.77C43.0398 157.393 43.5849 159.219 45.7025 159.427C45.6038 159.934 46.4046 160.039 46.8033 160.325C47.8576 162.32 46.1848 165.354 46.4962 167.418C47.5788 168.856 48.4788 169.251 50.3176 169.994C49.8712 170.202 50.4897 170.389 50.5746 170.577C50.7728 170.988 51.2034 171.972 51.3011 172.456C51.5352 173.638 50.4923 173.786 50.3047 174.638C49.3093 174.411 48.9943 175.685 48.1266 175.728C47.8952 176.333 47.6624 176.942 47.432 177.544C48.5315 179.394 51.6882 179.015 53.5372 178.755C53.6929 179.157 54.1505 179.344 54.6044 179.325C54.6433 180.773 54.35 181.984 54.2278 183.666C54.9853 185.459 58.2513 185.772 59.6925 186.559C60.1853 188.04 61.2962 189.027 60.9822 190.732C60.657 192.486 59.0239 193.845 58.2523 195.777C58.9262 195.895 59.2659 195.28 59.8008 195.083C60.6224 195.55 61.2524 195.938 61.9299 196.221C62.6449 196.518 63.478 197.258 64.2022 197.406C64.8026 197.534 65.533 197.077 66.199 197.209C67.1312 197.393 67.9347 198.189 68.3271 198.344C69.5062 198.795 70.8472 198.65 71.6215 198.96C72.371 199.262 73.0833 199.888 73.397 200.595C74.5324 201.099 74.4965 202.116 75.488 202.678C75.4508 204.472 77.3834 205.381 78.4403 206.687C77.9736 208.81 77.809 211.387 77.544 213.236C77.4051 214.174 76.9459 215.056 76.806 215.994C76.699 216.709 76.8636 217.347 76.671 218.028C76.2401 219.562 75.1022 221.211 75.4893 222.386C75.8287 222.461 76.0163 222.609 76.1361 222.791C77.5914 221.484 77.0502 219.644 77.4745 218.018C77.5568 217.712 77.8989 217.406 77.99 217.09C78.8182 214.266 78.7731 210.561 79.6925 208.451C79.8584 208.066 80.2893 207.99 80.2044 207.523C81.5543 207.247 82.9665 207.809 82.7311 209.29C83.0807 209.619 83.6762 209.488 83.8869 210.054C83.8408 211.324 82.9701 212.812 83.2802 214.145C84.5465 214.497 84.2832 213.539 84.3935 212.489C84.5311 211.199 85.7632 210.304 85.642 208.803C86.2451 208.415 86.9578 208.313 87.5993 207.467C88.152 207.576 88.4825 207.2 89.0651 207.385C89.155 207.227 89.1962 206.98 89.3673 207.016C90.8987 206.289 92.9998 206.839 95.3014 207.842C96.8047 209.481 96.8047 212.532 100.02 212.687C100.516 212.243 101.052 211.88 101.588 211.525C102.088 210.508 102.608 207.714 104.031 207.651C104.721 207.622 105.686 208.198 106.245 208.978C106.663 209.208 106.761 208.744 107.107 208.826C108.516 210.475 107.948 213.009 108.78 214.915C109.182 215.178 109.017 215.112 109.484 215.178C109.608 216.248 110.175 217.113 110.447 218.114C110.785 218.265 111.113 218.39 111.342 218.295C111.734 214.349 113.55 211.561 112.685 208.073C113.067 207.395 112.936 206.95 112.988 206.427C113.338 205.571 115.235 205.693 114.746 205.17C115.357 205.604 115.812 204.936 116.331 204.818C116.454 204.788 116.468 205.078 116.557 205.061C116.662 205.048 116.816 204.782 116.996 204.752C117.575 204.643 117.983 204.492 118.381 204.479C119.793 204.443 120.896 205.242 122.039 205.394C122.338 206.032 122.767 206.615 123.094 207.24C124.89 207.74 126.794 207.523 127.153 205.427C127.153 205.413 126.92 205.278 126.923 205.18C126.936 204.772 127.266 203.985 127.23 203.537C127.223 203.386 126.839 203.159 126.888 202.764C126.938 202.326 126.877 202.142 126.734 201.902C126.991 201.556 127.512 200.862 127.901 200.108C129.963 200.2 130.919 200.684 132.905 201.698C133.618 201.135 134.682 201.355 135.447 200.905C135.757 199.957 136.297 198.522 135.537 197.735C135.647 196.396 135.017 195.501 134.628 194.665C134.693 193.22 135.865 193.039 136.181 192.693C136.462 192.384 136.55 191.782 136.747 191.627C136.694 191.67 136.843 191.923 136.972 191.877C137.352 191.749 137.121 190.933 137.363 191.703C137.843 190.962 138.561 190.758 139.26 190.508C141.597 191.048 143.019 192.302 145.035 191.752C145.619 190.956 146.455 190.031 146.487 188.783C145.926 187.569 145.251 186.401 144.46 185.282C144.454 183.235 146.265 181.862 147.985 181.503C147.545 181.109 147.837 180.506 147.993 180.227C148.715 178.969 151.296 179.522 152.714 179.624C152.85 179.157 153.134 179.012 153.538 179.14C155.335 180.213 155.602 181.52 157.233 182.471C156.919 183.356 157.796 183.616 157.624 184.383C157.388 185.413 155.512 186.374 154.502 187.516C154.008 188.082 153.899 188.675 153.301 188.981C151.54 188.964 150.881 186.49 149.161 187.237C149.743 187.48 149.802 187.954 150.014 188.365C150.888 188.747 151.777 189.119 151.845 189.866C151.29 191.133 150.921 191.37 150.215 192.446C149.734 192.058 149.72 192.726 149.356 192.601C149.176 193.552 148.197 193.671 147.718 194.378C147.728 194.355 147.919 194.721 147.836 194.902C147.693 195.218 147.019 195.221 147.237 195.636C147.561 196.185 147.418 196.942 147.819 197.459C149.537 198.357 150.438 197.436 151.624 197.153C151.586 196.649 152.094 196.481 152.335 196.139C153.668 194.171 155.07 191.933 157.307 192.753C157.685 191.64 156.754 191.834 156.919 190.84C157.311 190.765 157.593 190.455 158.021 190.465C159.291 188.708 161.099 189.386 163.384 190.268C163.28 190.909 164.109 190.877 163.765 191.377C164.493 191.235 164.052 191.92 164.776 192.081C165.549 194.21 165.335 196.34 164.215 198.594C164.127 198.759 163.145 199.69 163.173 199.641C163.161 199.661 163.316 199.924 163.151 200.111C162.792 200.523 162.231 200.694 161.972 201.102C161.664 201.589 161.575 202.326 161.278 202.919C160.456 204.554 159.878 205.387 160.728 206.878C161.84 207.668 162.809 207.586 163.672 206.717C163.845 206.796 163.798 206.97 164.038 207.02C164.301 206.799 164.657 206.098 164.863 206.532C165.227 205.381 165.65 204.861 165.49 204.051C167.045 203.087 166.973 201.211 168.007 199.565C168.147 199.614 168.287 199.667 168.423 199.723C168.758 198.89 169.34 198.4 169.947 197.419C170.492 197.511 170.899 197.301 171.333 197.149C172.51 197.38 173.154 198.387 174.075 198.354C174.56 200.579 176.729 202.728 178.154 204.88C178.08 206.723 177.545 208.589 176.317 210.103C175.39 210.153 175.263 211.69 174.676 211.884C175.534 212.746 174.059 213.733 174.696 214.77C176.014 216.521 178.052 215.023 179.404 215.448C179.615 215.221 180.72 214.77 181.421 214.777C182.273 215.636 182.559 216.741 183.963 217.35C184.207 217.08 184.923 217.196 184.705 216.672C185.205 217.169 185.863 216.05 186.447 215.892C186.644 214.862 187.132 214.734 187.049 213.885C187.178 213.914 187.235 214.194 187.329 213.993C187.719 213.141 188.011 211.018 189.14 210.515L189.131 210.501C189.299 210.442 189.426 210.399 189.531 210.367C189.645 210.32 189.736 210.288 189.83 210.258L189.853 210.245L189.875 210.222C189.95 210.11 189.946 209.955 189.934 209.817L190.018 209.893C191.842 210.301 194.349 210.409 196.073 211.242C196.272 211.337 196.648 211.831 197.031 212.088C197.74 212.565 198.328 212.598 198.658 212.868C198.745 212.944 198.729 213.348 198.773 213.391C199.307 213.928 199.374 213.723 199.734 214.24C199.905 214.49 200.046 214.717 200.131 214.872C200.386 215.297 200.113 215.336 200.088 215.82C200.065 216.36 200.338 217.084 200.26 217.482C200.136 218.058 200.155 217.818 200.219 218.436C200.442 220.839 198.683 220.286 198.384 222.379C198.211 222.326 198.04 222.294 198 222.55C197.089 224.133 196.124 226.128 196.393 228.027C196.93 228.596 197.914 228.968 198.943 229.314C199.437 228.83 200.391 228.935 200.98 228.175C201.224 227.865 201.292 227.23 201.518 226.776C202.359 225.035 203.037 223.807 202.592 222.698C203.231 221.448 203.81 220.539 204.118 219.121C204.876 218.43 205.034 217.989 205.584 216.959C205.996 217.156 206.047 216.149 206.307 216.751C206.439 216.495 206.266 216.383 206.378 216.142C207.221 215.948 207.867 215.316 208.786 215.297C209.158 215.902 210.568 215.415 211.131 215.869C211.877 215.119 213.209 215.326 214.126 215.57C215.465 215.938 217.11 216.715 217.829 217.63C217.446 218.489 217.975 219.443 218.425 220.256C218.231 221.767 218.313 223.083 217.96 224.403C217.807 225.002 217.472 225.595 217.266 226.226C217.645 226.562 217.522 227.118 217.348 227.698C217.79 228.616 217.63 229.807 217.539 230.972L217.617 231.041C217.612 231.048 217.602 231.051 217.597 231.058C217.516 231.219 217.485 231.377 217.456 231.535C217.444 231.601 217.427 231.667 217.409 231.729L217.408 231.726C217.17 232.305 216.956 233.079 216.857 233.595C217.842 234.119 218.648 232.141 217.689 231.834L217.66 231.844C217.685 231.759 217.71 231.67 217.726 231.588C217.742 231.509 217.755 231.436 217.778 231.361C218.133 231.37 217.954 231.189 218.061 230.854C218.994 230.719 221.243 231.558 221.836 232.295C221.925 232.644 221.669 233.148 221.689 233.516C222.071 233.681 222.057 233.394 222.248 233.733C222.492 233.358 222.853 231.881 222.524 231.755C223.978 229.235 223.535 227.174 223.776 224.706C223.405 224.449 223.223 224.104 223.205 223.686C223.621 223.087 223.316 222.419 223.792 222.145C222.839 221.892 223.69 221.444 223.717 220.678C223.514 220.576 223.181 220.53 223.207 220.322C223.357 219.664 223.506 218.65 223.751 217.646C225.276 216.906 226.74 216.027 228.386 215.573C228.623 215.659 228.854 215.747 229.084 215.836C229.636 215.609 230.439 214.819 230.909 215.254C231.318 214.694 231.952 214.645 232.771 215C232.821 214.592 233.163 214.849 233.351 214.744C235.036 215.106 235.417 216.346 236.75 217.166C236.725 217.87 237.254 218.331 237.334 218.989C236.424 221.405 237.733 223.837 238.363 225.95C239.111 226.401 240.049 226.671 240.757 226.381C241.04 225.453 241.761 225.519 242.068 224.643C241.53 224.285 241.945 223.936 242.181 223.083C241.465 222.557 241.8 221.553 241.419 220.872C241.929 220.454 241.252 220.48 241.657 219.842C241.504 219.756 241.254 219.71 241.295 219.539C241.196 219.312 241.323 218.983 241.472 218.644C240.715 218.407 240.913 217.742 241.112 217.071C240.397 216.695 240.681 215.869 240.533 215.244C241.214 214.283 241.463 213.71 242.609 213.154C244.363 213.253 244.642 214.819 245.677 215.609C245.413 216.001 245.762 216.11 245.497 216.501C246.335 217.321 246.944 218.249 248.481 218.765C248.53 218.282 249.175 218.565 249.445 218.328C249.416 218.354 249.149 218.166 249.218 218.081C249.564 217.673 250.588 216.419 250.762 215.307C250.802 214.941 250.235 214.842 250.663 214.309C251.207 214.806 252.217 215.659 251.733 216.959C252.461 217.433 252.118 218.782 252.846 219.568C252.77 219.555 252.688 219.588 252.642 219.657C252.579 219.759 252.605 219.888 252.701 219.95C252.763 219.993 252.842 220.046 252.935 220.082C252.945 220.082 252.951 220.089 252.954 220.089L252.918 220.135C252.852 220.849 253.922 221.579 253.257 222.188C253.593 222.386 253.827 222.626 253.939 222.929C253.86 224.275 255.097 225.035 254.637 226.559C255.301 226.977 254.992 227.191 255.153 227.717C255.344 227.793 255.486 227.767 255.624 227.734V227.701C255.667 227.734 255.706 227.767 255.749 227.796C255.064 228.007 255.617 229.445 256.072 229.508C256.671 228.968 256.457 228.3 256.161 227.8C256.161 227.757 256.144 227.714 256.111 227.678C256.095 227.668 256.075 227.655 256.059 227.638C256.045 227.615 256.029 227.586 256.012 227.563L256.009 227.599C255.966 227.559 255.92 227.52 255.871 227.48C255.91 225.677 255.018 224.979 255.687 222.955C255.542 222.511 255.002 222.965 255.097 222.409C255.525 222.185 255.061 222.116 254.979 221.882C254.837 221.461 254.92 220.918 254.794 220.691C254.617 220.378 253.83 219.901 254.297 219.058C254.301 218.788 253.629 218.815 253.702 218.509C253.797 217.581 253.27 216.926 253.191 216.073C252.52 215.675 252.625 214.935 252.22 214.418C252.553 213.658 251.7 213.411 252.108 212.614C251.348 212.104 251.457 211.206 251.546 210.317C252.474 210.488 251.924 210.047 252.737 210.13C254.037 210.515 255.384 210.966 255.301 212.233C255.835 212.341 255.914 212.654 256.17 212.884C256.483 212.608 256.269 212.423 256.526 212.377C257.839 212.98 257.774 213.487 259.301 213.921C260.298 213.404 260.94 213.582 261.424 212.973C262.454 211.676 261.339 208.392 262.583 207.003C263.264 207.059 263.666 206.493 264.271 206.368C265.401 206.839 266.908 207.27 267.112 208.573C266.849 208.925 267.172 209.014 266.987 209.323C267.55 209.85 267.409 210.686 268.426 210.998C267.952 211.304 269.446 212.012 269.95 212.055C270.697 212.127 271.576 211.63 272.244 211.495C272.405 211.077 272.563 210.653 272.725 210.235C272.31 210.014 271.925 209.554 272.517 209.514C272.237 209.218 271.698 209.037 272.145 208.412C271.958 208.339 271.77 208.273 271.582 208.198C271.711 206.598 270.262 205.696 271.207 203.732C271.836 203.715 272.014 202.873 272.438 202.599C272.507 202.553 272.781 202.771 272.856 202.757C273.169 202.718 273.297 202.264 273.544 202.221C273.508 202.395 273.709 202.455 273.913 202.517C274.157 201.77 274.818 201.945 275.315 201.777C275.776 202.303 276.629 202.659 276.428 203.482C277.626 204.41 277.926 205.749 279.232 206.631C279.302 206.532 279.338 206.358 279.476 206.407C280.339 207.951 282.452 207.931 283.887 207.451C284.842 207.941 285.503 207.78 286.109 207.497C286.01 206.898 287.284 206.944 287.011 206.404C287.212 206.427 287.353 206.302 287.623 206.476C288.245 205.515 289.18 204.818 289.272 203.419C289.648 203.557 290.016 203.702 290.392 203.85C290.178 204.285 290.823 204.347 290.685 204.758C292.403 205.571 292.61 207.066 293.324 208.329C293.927 208.25 293.815 208.576 294.249 208.843C295.708 208.171 296.494 209.932 297.442 210.544L297.456 210.488C297.548 210.571 297.617 210.64 297.673 210.715C297.693 210.742 297.726 210.768 297.752 210.778C297.811 210.801 297.877 210.794 297.926 210.755C298.009 210.702 298.028 210.584 297.966 210.501C297.893 210.396 297.801 210.307 297.679 210.202L297.745 210.179C297.442 209.465 297.054 208.79 296.211 208.31C296.257 206.595 295.731 205.13 294.118 204.15C294.368 203.804 293.95 203.761 294.055 203.485C293.035 203.33 293.621 202.201 292.732 202.336C292.804 201.994 292.818 201.678 292.577 201.474C292.018 201.53 291.883 200.398 290.971 200.227C291.349 199.545 290.513 200.069 291.014 199.276C290.517 198.923 290.411 198.387 289.687 198.137C289.69 197.897 289.611 197.702 289.625 197.465C288.792 197.001 288.193 195.896 287.373 195.803C287.689 195.218 286.751 195.142 286.609 194.869C286.57 194.8 286.669 194.444 286.629 194.398C286.524 194.283 286.254 194.352 286.066 194.187C285.711 193.858 285.539 193.072 284.832 193.233C284.901 192.93 284.559 192.815 284.628 192.512C285.256 191.193 286.241 190.083 287.696 189.517C288.726 190.215 289.835 190.024 290.596 190.307C291.257 190.557 291.498 191.061 292.074 191.202C292.093 191.245 292.11 191.285 292.13 191.337C292.126 191.341 292.126 191.344 292.13 191.35C291.978 191.884 292.452 192.14 292.824 192.44C293.002 192.371 293.568 191.897 293.288 191.657C293.028 191.943 292.995 191.183 292.495 191.193V191.196C292.462 191.1 292.426 190.988 292.33 190.867C292.321 190.86 292.311 190.847 292.297 190.84L292.324 190.807C292.495 190.268 291.705 190.156 291.807 189.652C292.041 188.168 293.15 186.364 293.677 184.758C294.026 183.702 294.493 183.08 295.194 182.451C295.267 182.267 295.003 182.234 295.026 182.07C295.303 182.135 295.273 182.343 295.53 182.418C297.038 181.395 298.917 182.794 300.833 183.643C302.64 183.179 303.256 179.394 301.702 178.851Z" fill="#696969"/>
<path d="M152.947 184.038C152.437 182.892 150.65 182.718 149.836 182.53C150.317 183.468 151.712 184.982 152.947 184.038Z" fill="#696969"/>
<path d="M131.768 212.637C131.916 213.197 132.013 214.579 132.984 214.062C132.892 213.523 132.355 212.568 131.768 212.637Z" fill="#696969"/>
<path d="M267.619 278.134L267.589 278.15C267.557 277.815 267.497 277.479 267.428 277.153C267.399 277.025 267.369 276.893 267.346 276.761C267.435 276.613 267.583 276.59 267.645 276.38C267.343 275.333 267.063 274.27 266.609 273.286C266.609 273.286 266.609 273.279 266.609 273.276C266.582 273.141 266.556 272.983 266.582 272.871L266.592 272.822L266.559 272.779C266.474 272.674 266.395 272.601 266.329 272.555C266.279 272.522 266.207 272.539 266.174 272.588C266.141 272.638 266.154 272.713 266.207 272.74C266.243 272.769 266.296 272.819 266.345 272.884C266.335 273.01 266.355 273.158 266.388 273.296L266.263 273.289C265.631 273.618 266.625 274.362 265.944 274.129C266.273 274.83 266.668 275.501 266.316 276.511C266.658 276.58 266.536 276.857 266.915 276.91C266.938 277.028 266.957 277.137 266.981 277.245C267.046 277.558 267.102 277.857 267.132 278.154C266.76 279.039 267.376 279.49 267.096 280.336C267.606 280.609 268.004 280.635 268.32 280.484C268.406 280.141 268.264 279.802 268.643 279.644C267.909 279.312 268.264 278.499 267.619 278.134" fill="#696969"/>
<path d="M111.852 262.876C111.856 262.827 111.864 262.774 111.872 262.718C111.877 262.682 111.885 262.646 111.889 262.613C111.895 262.567 111.862 262.514 111.813 262.511C111.761 262.504 111.716 262.54 111.709 262.587C111.702 262.623 111.701 262.649 111.696 262.689C111.674 262.777 111.669 262.883 111.682 262.991L111.593 262.922C111.508 263.62 111.369 264.341 112.236 264.611C112.625 263.801 112.471 263.238 111.852 262.876Z" fill="#696969"/>
<path d="M276.783 222.682C276.806 221.316 275.737 220.441 275.756 219.085C275.523 218.956 274.999 218.963 275.305 218.591C275.332 218.496 275.345 218.417 275.217 218.4C274.835 218.581 274.262 218.338 273.798 218.334C273.666 219.144 272.702 219.407 272.353 220.026C271.948 220.737 272.03 221.365 271.885 222.089C271.819 222.402 271.573 222.738 271.51 223.067C271.332 223.988 271.908 225.14 271.615 226.154C271.388 226.941 271.299 227.826 270.987 228.639C271.319 228.718 271.497 228.869 271.438 229.129C270.466 230.883 272.461 231.778 273.883 232.792C274.594 232.391 274.821 232.065 275.398 231.765C275.542 230.515 276.046 229.172 276.332 227.632C276.425 227.148 276.286 226.618 276.392 226.213C276.477 225.937 276.803 225.71 276.856 225.43C277.017 224.551 276.616 223.669 277.145 222.985C276.994 222.893 276.744 222.853 276.783 222.682" fill="#696969"/>
<path d="M264.62 264.173C264.518 263.093 264.657 261.919 264.044 261.069C264.446 260.421 263.87 260.217 264.104 259.648C263.136 258.575 263.639 256.847 262.902 255.665C263.007 254.296 262.217 252.453 261.631 251.018C261.615 249.919 261.49 249.567 261.069 248.718C261.434 247.895 260.7 247.569 261.009 246.773C259.716 245.344 260.038 243.189 259.732 241.316C259.574 241.237 259.324 241.188 259.363 241.02C259.087 238.479 257.81 236.386 257.639 233.786C255.729 233.358 257.109 235.159 256.681 236.307C257.122 236.544 257.467 237.301 257.51 237.907C257.517 238.025 257.313 238.216 257.352 238.328C257.527 238.914 258.363 239.486 257.932 240.151C258.267 240.237 258.442 240.385 258.382 240.645C258.103 241.356 258.669 241.682 258.745 242.225C258.85 243.913 259.13 245.532 259.821 246.96C259.916 247.187 259.785 247.513 259.64 247.852C260.874 248.458 260.012 250.008 260.934 250.748C260.585 252.256 261.635 253.941 261.622 255.652C262.471 255.876 261.756 256.189 262.389 256.597C262.02 258.081 262.678 258.878 263.083 260.224C262.948 261.79 263.498 263.051 264.097 264.288C264.219 264.14 264.383 264.077 264.62 264.173" fill="#696969"/>
<path d="M160.227 242.57C158.387 241.152 156.894 242.458 155.998 243.995C156.061 244.732 156.414 245.163 156.11 245.805C156.729 246.263 157.049 246.855 157.607 247.336C159.303 247.49 160.841 246.523 161.146 244.364C160.653 243.847 160.473 243.195 160.227 242.57" fill="#696969"/>
<path d="M194.768 273.381C194.372 274.484 194.461 275.718 194.237 276.867C194.369 277.229 194.96 277.39 194.614 277.969C195.646 279.039 196.245 279.177 197.585 279.424C199.547 278.335 201.297 275.768 200.878 273.312C200.289 270.08 196.009 269.916 194.768 273.381Z" fill="#696969"/>
<path d="M265.93 7.89396C265.917 7.95649 265.95 8.01571 266.009 8.03875C266.016 8.04533 266.022 8.04863 266.029 8.04533C266.098 8.06179 266.167 8.01241 266.18 7.94659C266.24 7.66355 266.174 7.45954 266.095 7.23903C266.075 7.16992 266.045 7.10405 266.022 7.02506C266.009 6.95924 265.934 6.91975 265.868 6.94278C265.802 6.95595 265.762 7.02834 265.785 7.09416C265.805 7.17644 265.831 7.2522 265.855 7.32131C265.927 7.52207 265.976 7.68333 265.93 7.89396" fill="#696969"/>
<path d="M326.476 134.931C326.469 134.803 326.351 134.707 326.219 134.72C325.761 134.763 325.301 134.773 324.856 134.783C324.3 134.796 323.72 134.806 323.151 134.891C323.023 134.911 322.934 135.03 322.957 135.155C322.967 135.247 323.026 135.316 323.102 135.346C323.141 135.355 323.177 135.362 323.223 135.355C323.763 135.273 324.297 135.263 324.863 135.257C325.32 135.247 325.791 135.237 326.262 135.188C326.397 135.174 326.489 135.059 326.476 134.931Z" fill="#696969"/>
<path d="M325.653 143.211C325.676 143.224 325.709 143.231 325.745 143.218C325.774 143.208 325.847 143.228 325.909 143.244L325.979 143.257C326.061 143.274 326.133 143.224 326.15 143.152C326.166 143.07 326.113 142.987 326.041 142.974L325.979 142.961C325.873 142.932 325.768 142.905 325.663 142.935C325.587 142.964 325.541 143.037 325.56 143.119C325.574 143.165 325.61 143.198 325.653 143.211Z" fill="#696969"/>
<path d="M112.586 266.454C112.55 266.348 112.438 266.286 112.331 266.319C112.223 266.348 112.165 266.46 112.192 266.569C112.242 266.73 112.277 266.875 112.308 267.063C112.316 267.142 112.367 267.201 112.431 267.227C112.467 267.24 112.502 267.244 112.534 267.24C112.643 267.224 112.727 267.118 112.708 267.013C112.679 266.799 112.631 266.625 112.586 266.454" fill="#696969"/>
</svg>
